<svg width="24" height="24" viewBox="0 0 40 40" fill="" xmlns="http://www.w3.org/2000/svg">
<path d="M39.91 1.715C40.0009 1.48784 40.0232 1.23899 39.974 0.999302C39.9248 0.759611 39.8064 0.539621 39.6334 0.366605C39.4604 0.193589 39.2404 0.0751553 39.0007 0.0259867C38.761 -0.023182 38.5121 -0.000923203 38.285 0.0900035L1.91748 14.6375H1.91498L0.784982 15.0875C0.570958 15.1729 0.384696 15.3157 0.246771 15.5003C0.108847 15.6849 0.0246273 15.904 0.00341596 16.1335C-0.0177954 16.3629 0.0248269 16.5938 0.126575 16.8005C0.228323 17.0072 0.385236 17.1818 0.579982 17.305L1.60498 17.955L1.60748 17.96L14.095 25.905L22.04 38.3925L22.045 38.3975L22.695 39.4225C22.8185 39.6165 22.9932 39.7726 23.1998 39.8737C23.4064 39.9749 23.6369 40.017 23.8659 39.9955C24.0949 39.9741 24.3135 39.8899 24.4977 39.7522C24.682 39.6144 24.8246 39.4286 24.91 39.215L39.91 1.715ZM35.3275 6.44L16.5925 25.175L16.055 24.33C15.9565 24.1749 15.825 24.0435 15.67 23.945L14.825 23.4075L33.56 4.6725L36.505 3.495L35.3275 6.44Z" fill="white"/>
</svg>
