<svg width="24" height="24" viewBox="0 0 40 40" fill="none" xmlns="http://www.w3.org/2000/svg">
<path d="M26.25 21.6666C26.25 21.3351 26.1183 21.0172 25.8839 20.7827C25.6495 20.5483 25.3315 20.4166 25 20.4166H15C14.6685 20.4166 14.3505 20.5483 14.1161 20.7827C13.8817 21.0172 13.75 21.3351 13.75 21.6666C13.75 21.9981 13.8817 22.3161 14.1161 22.5505C14.3505 22.7849 14.6685 22.9166 15 22.9166H25C25.3315 22.9166 25.6495 22.7849 25.8839 22.5505C26.1183 22.3161 26.25 21.9981 26.25 21.6666ZM26.25 28.3333C26.25 28.0018 26.1183 27.6838 25.8839 27.4494C25.6495 27.215 25.3315 27.0833 25 27.0833H15C14.6685 27.0833 14.3505 27.215 14.1161 27.4494C13.8817 27.6838 13.75 28.0018 13.75 28.3333C13.75 28.6648 13.8817 28.9828 14.1161 29.2172C14.3505 29.4516 14.6685 29.5833 15 29.5833H25C25.3315 29.5833 25.6495 29.4516 25.8839 29.2172C26.1183 28.9828 26.25 28.6648 26.25 28.3333Z" fill="white"/>
<path fill-rule="evenodd" clip-rule="evenodd" d="M11.6666 3.75C10.4511 3.75 9.28528 4.23289 8.42574 5.09243C7.5662 5.95197 7.08331 7.11776 7.08331 8.33333V31.6667C7.08331 32.8822 7.5662 34.048 8.42574 34.9076C9.28528 35.7671 10.4511 36.25 11.6666 36.25H28.3333C29.5489 36.25 30.7147 35.7671 31.5742 34.9076C32.4338 34.048 32.9166 32.8822 32.9166 31.6667V13.28C32.9166 12.645 32.71 12.0283 32.3266 11.5217L27.33 4.90833C27.0581 4.54853 26.7065 4.25667 26.3028 4.05568C25.8991 3.85469 25.4543 3.75006 25.0033 3.75H11.6666ZM9.58331 8.33333C9.58331 7.18333 10.5166 6.25 11.6666 6.25H23.75V13.5783C23.75 14.2683 24.31 14.8283 25 14.8283H30.4166V31.6667C30.4166 32.8167 29.4833 33.75 28.3333 33.75H11.6666C10.5166 33.75 9.58331 32.8167 9.58331 31.6667V8.33333Z" fill="white"/>
</svg>
