<svg width="24" height="24" viewBox="0 0 40 40" fill="none" xmlns="http://www.w3.org/2000/svg">
<path fill-rule="evenodd" clip-rule="evenodd" d="M23.75 4.16667C23.75 4.05616 23.7061 3.95018 23.6279 3.87204C23.5498 3.7939 23.4438 3.75 23.3333 3.75H11.6666C10.4511 3.75 9.28528 4.23289 8.42574 5.09243C7.5662 5.95197 7.08331 7.11776 7.08331 8.33333V31.6667C7.08331 32.8822 7.5662 34.048 8.42574 34.9076C9.28528 35.7671 10.4511 36.25 11.6666 36.25H28.3333C29.5489 36.25 30.7147 35.7671 31.5742 34.9076C32.4338 34.048 32.9166 32.8822 32.9166 31.6667V15.245C32.9166 15.1345 32.8727 15.0285 32.7946 14.9504C32.7165 14.8722 32.6105 14.8283 32.5 14.8283H25C24.6685 14.8283 24.3505 14.6966 24.1161 14.4622C23.8817 14.2278 23.75 13.9099 23.75 13.5783V4.16667ZM25 20.4167C25.3315 20.4167 25.6494 20.5484 25.8839 20.7828C26.1183 21.0172 26.25 21.3351 26.25 21.6667C26.25 21.9982 26.1183 22.3161 25.8839 22.5505C25.6494 22.785 25.3315 22.9167 25 22.9167H15C14.6685 22.9167 14.3505 22.785 14.1161 22.5505C13.8817 22.3161 13.75 21.9982 13.75 21.6667C13.75 21.3351 13.8817 21.0172 14.1161 20.7828C14.3505 20.5484 14.6685 20.4167 15 20.4167H25ZM25 27.0833C25.3315 27.0833 25.6494 27.215 25.8839 27.4494C26.1183 27.6839 26.25 28.0018 26.25 28.3333C26.25 28.6649 26.1183 28.9828 25.8839 29.2172C25.6494 29.4516 25.3315 29.5833 25 29.5833H15C14.6685 29.5833 14.3505 29.4516 14.1161 29.2172C13.8817 28.9828 13.75 28.6649 13.75 28.3333C13.75 28.0018 13.8817 27.6839 14.1161 27.4494C14.3505 27.215 14.6685 27.0833 15 27.0833H25Z" fill="white"/>
<path d="M26.25 4.70668C26.25 4.40001 26.5717 4.20501 26.81 4.39668C27.0117 4.56001 27.1933 4.75001 27.3483 4.96668L32.37 11.9617C32.4833 12.1217 32.36 12.3283 32.1633 12.3283H26.6667C26.5562 12.3283 26.4502 12.2844 26.372 12.2063C26.2939 12.1282 26.25 12.0222 26.25 11.9117V4.70668Z" fill="white"/>
</svg>
