<svg width="84" height="84" viewBox="0 0 84 84" fill="none" xmlns="http://www.w3.org/2000/svg">
<path fill-rule="evenodd" clip-rule="evenodd" d="M17.5 7C16.5717 7 15.6815 7.36875 15.0251 8.02513C14.3687 8.6815 14 9.57174 14 10.5V66.5C14 69.2848 15.1062 71.9555 17.0754 73.9246C19.0445 75.8938 21.7152 77 24.5 77H59.5C62.2848 77 64.9555 75.8938 66.9246 73.9246C68.8938 71.9555 70 69.2848 70 66.5V28C69.9998 27.0718 69.6309 26.1817 68.9745 25.5255L51.4745 8.0255C50.8183 7.36908 49.9282 7.0002 49 7H17.5ZM49 15.449L61.551 28H49V15.449ZM42 42C42.9283 42 43.8185 42.3688 44.4749 43.0251C45.1313 43.6815 45.5 44.5717 45.5 45.5V49H49C49.9283 49 50.8185 49.3688 51.4749 50.0251C52.1312 50.6815 52.5 51.5717 52.5 52.5C52.5 53.4283 52.1312 54.3185 51.4749 54.9749C50.8185 55.6312 49.9283 56 49 56H45.5V59.5C45.5 60.4283 45.1313 61.3185 44.4749 61.9749C43.8185 62.6313 42.9283 63 42 63C41.0717 63 40.1815 62.6313 39.5251 61.9749C38.8687 61.3185 38.5 60.4283 38.5 59.5V56H35C34.0717 56 33.1815 55.6312 32.5251 54.9749C31.8687 54.3185 31.5 53.4283 31.5 52.5C31.5 51.5717 31.8687 50.6815 32.5251 50.0251C33.1815 49.3688 34.0717 49 35 49H38.5V45.5C38.5 44.5717 38.8687 43.6815 39.5251 43.0251C40.1815 42.3688 41.0717 42 42 42Z" fill="#435DC7"/>
</svg>
