<svg width="20" height="16" viewBox="0 0 20 16" fill="none" xmlns="http://www.w3.org/2000/svg">
<path d="M12.81 2.36L11.04 4.14C10.3616 3.95796 9.64725 3.95777 8.96876 4.13944C8.29027 4.32111 7.67158 4.67824 7.17491 5.1749C6.67825 5.67157 6.32112 6.29026 6.13945 6.96875C5.95778 7.64724 5.95798 8.36161 6.14001 9.04L3.38001 11.79C2.06001 10.79 0.960012 9.49 0.200012 8C1.34093 5.76284 3.213 3.98342 5.50514 2.95741C7.79728 1.9314 10.3715 1.72059 12.8 2.36H12.81ZM16.61 4.21C17.94 5.21 19.04 6.51 19.81 8C18.6683 10.2413 16.793 12.0236 14.4966 13.0499C12.2002 14.0762 9.62137 14.2845 7.19001 13.64L8.96001 11.86C9.6384 12.042 10.3528 12.0422 11.0313 11.8606C11.7098 11.6789 12.3284 11.3218 12.8251 10.8251C13.3218 10.3284 13.6789 9.70974 13.8606 9.03125C14.0422 8.35276 14.042 7.63839 13.86 6.96L16.62 4.21H16.61ZM16.36 0.220001L17.78 1.64L3.64001 15.78L2.22001 14.36L16.36 0.220001Z" fill="#435DC7"/>
</svg>
