<svg width="183" height="48" viewBox="0 0 183 48" fill="none" xmlns="http://www.w3.org/2000/svg">
<path d="M34.136 44.312C32.856 45.2507 31.064 46.04 28.76 46.68C26.4987 47.2773 23.5547 47.576 19.928 47.576C16.344 47.576 12.9307 47.2773 9.688 46.68C6.44533 46.0827 4.12 45.4213 2.712 44.696C1.304 43.9707 0.6 43.2667 0.6 42.584C0.6 40.1947 0.941333 37.72 1.624 35.16C2.30667 32.5573 3.11733 31.256 4.056 31.256C4.22667 31.256 5.99733 31.832 9.368 32.984C12.7387 34.136 15.2773 34.712 16.984 34.712C18.6907 34.712 19.8 34.5413 20.312 34.2C20.824 33.816 21.08 33.2827 21.08 32.6C21.08 31.9173 20.6107 31.32 19.672 30.808C18.7333 30.2533 17.56 29.784 16.152 29.4C14.744 28.9733 13.208 28.376 11.544 27.608C9.92267 26.84 8.408 25.9867 7 25.048C5.592 24.1093 4.41867 22.7867 3.48 21.08C2.54133 19.3307 2.072 17.3467 2.072 15.128C2.072 5.656 7.72533 0.919998 19.032 0.919998C23.256 0.919998 26.904 1.19733 29.976 1.752C33.048 2.264 35.2027 2.86133 36.44 3.544C37.72 4.184 38.36 4.824 38.36 5.464C38.36 7.68267 37.8267 10.072 36.76 12.632C35.736 15.192 34.7333 16.472 33.752 16.472C33.5813 16.472 33.0267 16.28 32.088 15.896C29.272 14.6587 26.9253 14.04 25.048 14.04C23.2133 14.04 21.9547 14.2107 21.272 14.552C20.632 14.8933 20.312 15.4267 20.312 16.152C20.312 16.8347 20.7813 17.4107 21.72 17.88C22.6587 18.3067 23.8107 18.712 25.176 19.096C26.584 19.4373 28.0987 19.992 29.72 20.76C31.384 21.4853 32.92 22.36 34.328 23.384C35.736 24.3653 36.9093 25.7733 37.848 27.608C38.7867 29.4427 39.256 31.576 39.256 34.008C39.256 36.568 38.5947 38.8933 37.272 40.984C36.4613 42.264 35.416 43.3733 34.136 44.312ZM61.291 45.464C61.291 45.9333 59.9897 46.3173 57.387 46.616C54.7843 46.872 52.1603 47 49.515 47C46.9123 47 45.2483 46.8933 44.523 46.68C43.7977 46.424 43.435 46.0187 43.435 45.464V5.656C43.435 4.71733 44.6723 3.8 47.147 2.904C49.6217 1.96533 52.395 1.496 55.467 1.496C58.1977 1.496 59.9897 2.072 60.843 3.224C61.1417 3.65067 61.291 4.07733 61.291 4.504V45.464ZM99.011 44.312C97.731 45.2507 95.939 46.04 93.635 46.68C91.3737 47.2773 88.4297 47.576 84.803 47.576C81.219 47.576 77.8057 47.2773 74.563 46.68C71.3203 46.0827 68.995 45.4213 67.587 44.696C66.179 43.9707 65.475 43.2667 65.475 42.584C65.475 40.1947 65.8163 37.72 66.499 35.16C67.1817 32.5573 67.9923 31.256 68.931 31.256C69.1017 31.256 70.8723 31.832 74.243 32.984C77.6137 34.136 80.1523 34.712 81.859 34.712C83.5657 34.712 84.675 34.5413 85.187 34.2C85.699 33.816 85.955 33.2827 85.955 32.6C85.955 31.9173 85.4857 31.32 84.547 30.808C83.6083 30.2533 82.435 29.784 81.027 29.4C79.619 28.9733 78.083 28.376 76.419 27.608C74.7977 26.84 73.283 25.9867 71.875 25.048C70.467 24.1093 69.2937 22.7867 68.355 21.08C67.4163 19.3307 66.947 17.3467 66.947 15.128C66.947 5.656 72.6003 0.919998 83.907 0.919998C88.131 0.919998 91.779 1.19733 94.851 1.752C97.923 2.264 100.078 2.86133 101.315 3.544C102.595 4.184 103.235 4.824 103.235 5.464C103.235 7.68267 102.702 10.072 101.635 12.632C100.611 15.192 99.6083 16.472 98.627 16.472C98.4563 16.472 97.9017 16.28 96.963 15.896C94.147 14.6587 91.8003 14.04 89.923 14.04C88.0883 14.04 86.8297 14.2107 86.147 14.552C85.507 14.8933 85.187 15.4267 85.187 16.152C85.187 16.8347 85.6563 17.4107 86.595 17.88C87.5337 18.3067 88.6857 18.712 90.051 19.096C91.459 19.4373 92.9737 19.992 94.595 20.76C96.259 21.4853 97.795 22.36 99.203 23.384C100.611 24.3653 101.784 25.7733 102.723 27.608C103.662 29.4427 104.131 31.576 104.131 34.008C104.131 36.568 103.47 38.8933 102.147 40.984C101.336 42.264 100.291 43.3733 99.011 44.312ZM118.166 47C117.099 47 115.542 47 113.494 47C111.489 47 110.123 46.8507 109.398 46.552C108.673 46.2533 108.31 45.784 108.31 45.144V4.76C108.31 3.77866 109.611 3.01066 112.214 2.456C114.859 1.85866 117.675 1.56 120.662 1.56C123.649 1.56 125.782 1.944 127.062 2.712C128.342 3.48 129.089 4.29066 129.302 5.144L133.654 22.04H134.23L138.326 5.912C138.625 4.76 140.011 3.75733 142.486 2.904C145.003 2.008 147.755 1.56 150.742 1.56C153.729 1.56 155.926 1.79466 157.334 2.264C158.785 2.73333 159.51 3.33067 159.51 4.056V45.144C159.51 45.6987 158.294 46.1467 155.862 46.488C153.43 46.8293 150.465 47 146.966 47C143.467 47 141.718 46.3813 141.718 45.144C141.718 41.7733 142.081 35.7787 142.806 27.16H142.23L138.902 43.864C138.774 44.504 138.241 44.9733 137.302 45.272C136.406 45.5707 135.041 45.72 133.206 45.72C131.371 45.72 130.241 45.592 129.814 45.336C129.43 45.08 129.174 44.5893 129.046 43.864L125.59 27.16H125.014C125.782 35.9493 126.166 41.944 126.166 45.144C126.166 46.2533 123.499 46.872 118.166 47ZM182.479 45.464C182.479 45.9333 181.177 46.3173 178.575 46.616C175.972 46.872 173.348 47 170.703 47C168.1 47 166.436 46.8933 165.711 46.68C164.985 46.424 164.623 46.0187 164.623 45.464V5.656C164.623 4.71733 165.86 3.8 168.335 2.904C170.809 1.96533 173.583 1.496 176.655 1.496C179.385 1.496 181.177 2.072 182.031 3.224C182.329 3.65067 182.479 4.07733 182.479 4.504V45.464Z" fill="white"/>
</svg>
