<svg width="24" height="24" viewBox="0 0 40 40" fill="none" xmlns="http://www.w3.org/2000/svg">
<path fill-rule="evenodd" clip-rule="evenodd" d="M10 3.3335C8.67392 3.3335 7.40215 3.86028 6.46447 4.79796C5.52678 5.73564 5 7.00741 5 8.3335V31.6668C5 32.9929 5.52678 34.2647 6.46447 35.2024C7.40215 36.14 8.67392 36.6668 10 36.6668H20C21.3261 36.6668 22.5979 36.14 23.5355 35.2024C24.4732 34.2647 25 32.9929 25 31.6668V8.3335C25 7.00741 24.4732 5.73564 23.5355 4.79796C22.5979 3.86028 21.3261 3.3335 20 3.3335H10ZM27.155 12.1552C27.4675 11.8427 27.8914 11.6672 28.3333 11.6672C28.7753 11.6672 29.1991 11.8427 29.5117 12.1552L36.1783 18.8218C36.4908 19.1344 36.6663 19.5582 36.6663 20.0002C36.6663 20.4421 36.4908 20.8659 36.1783 21.1785L29.5117 27.8452C29.1973 28.1488 28.7763 28.3168 28.3393 28.313C27.9023 28.3092 27.4843 28.1339 27.1753 27.8249C26.8663 27.5158 26.691 27.0978 26.6872 26.6608C26.6834 26.2238 26.8514 25.8028 27.155 25.4885L30.9767 21.6668H16.6667C16.2246 21.6668 15.8007 21.4912 15.4882 21.1787C15.1756 20.8661 15 20.4422 15 20.0002C15 19.5581 15.1756 19.1342 15.4882 18.8217C15.8007 18.5091 16.2246 18.3335 16.6667 18.3335H30.9767L27.155 14.5118C26.8425 14.1993 26.667 13.7754 26.667 13.3335C26.667 12.8916 26.8425 12.4677 27.155 12.1552Z" fill="white"/>
</svg>
