<svg width="183" height="48" viewBox="0 0 183 48" fill="none" xmlns="http://www.w3.org/2000/svg">
<mask id="path-1-outside-1_75_457" maskUnits="userSpaceOnUse" x="-5" y="-5" width="193" height="58" fill="black">
<rect fill="white" x="-5" y="-5" width="193" height="58"/>
<path d="M34.136 44.312C32.856 45.2507 31.064 46.04 28.76 46.68C26.4987 47.2773 23.5547 47.576 19.928 47.576C16.344 47.576 12.9307 47.2773 9.688 46.68C6.44533 46.0827 4.12 45.4213 2.712 44.696C1.304 43.9707 0.6 43.2667 0.6 42.584C0.6 40.1947 0.941333 37.72 1.624 35.16C2.30667 32.5573 3.11733 31.256 4.056 31.256C4.22667 31.256 5.99733 31.832 9.368 32.984C12.7387 34.136 15.2773 34.712 16.984 34.712C18.6907 34.712 19.8 34.5413 20.312 34.2C20.824 33.816 21.08 33.2827 21.08 32.6C21.08 31.9173 20.6107 31.32 19.672 30.808C18.7333 30.2533 17.56 29.784 16.152 29.4C14.744 28.9733 13.208 28.376 11.544 27.608C9.92267 26.84 8.408 25.9867 7 25.048C5.592 24.1093 4.41867 22.7867 3.48 21.08C2.54133 19.3307 2.072 17.3467 2.072 15.128C2.072 5.656 7.72533 0.919998 19.032 0.919998C23.256 0.919998 26.904 1.19733 29.976 1.752C33.048 2.264 35.2027 2.86133 36.44 3.544C37.72 4.184 38.36 4.824 38.36 5.464C38.36 7.68267 37.8267 10.072 36.76 12.632C35.736 15.192 34.7333 16.472 33.752 16.472C33.5813 16.472 33.0267 16.28 32.088 15.896C29.272 14.6587 26.9253 14.04 25.048 14.04C23.2133 14.04 21.9547 14.2107 21.272 14.552C20.632 14.8933 20.312 15.4267 20.312 16.152C20.312 16.8347 20.7813 17.4107 21.72 17.88C22.6587 18.3067 23.8107 18.712 25.176 19.096C26.584 19.4373 28.0987 19.992 29.72 20.76C31.384 21.4853 32.92 22.36 34.328 23.384C35.736 24.3653 36.9093 25.7733 37.848 27.608C38.7867 29.4427 39.256 31.576 39.256 34.008C39.256 36.568 38.5947 38.8933 37.272 40.984C36.4613 42.264 35.416 43.3733 34.136 44.312ZM61.291 45.464C61.291 45.9333 59.9897 46.3173 57.387 46.616C54.7843 46.872 52.1603 47 49.515 47C46.9123 47 45.2483 46.8933 44.523 46.68C43.7977 46.424 43.435 46.0187 43.435 45.464V5.656C43.435 4.71733 44.6723 3.8 47.147 2.904C49.6217 1.96533 52.395 1.496 55.467 1.496C58.1977 1.496 59.9897 2.072 60.843 3.224C61.1417 3.65067 61.291 4.07733 61.291 4.504V45.464ZM99.011 44.312C97.731 45.2507 95.939 46.04 93.635 46.68C91.3737 47.2773 88.4297 47.576 84.803 47.576C81.219 47.576 77.8057 47.2773 74.563 46.68C71.3203 46.0827 68.995 45.4213 67.587 44.696C66.179 43.9707 65.475 43.2667 65.475 42.584C65.475 40.1947 65.8163 37.72 66.499 35.16C67.1817 32.5573 67.9923 31.256 68.931 31.256C69.1017 31.256 70.8723 31.832 74.243 32.984C77.6137 34.136 80.1523 34.712 81.859 34.712C83.5657 34.712 84.675 34.5413 85.187 34.2C85.699 33.816 85.955 33.2827 85.955 32.6C85.955 31.9173 85.4857 31.32 84.547 30.808C83.6083 30.2533 82.435 29.784 81.027 29.4C79.619 28.9733 78.083 28.376 76.419 27.608C74.7977 26.84 73.283 25.9867 71.875 25.048C70.467 24.1093 69.2937 22.7867 68.355 21.08C67.4163 19.3307 66.947 17.3467 66.947 15.128C66.947 5.656 72.6003 0.919998 83.907 0.919998C88.131 0.919998 91.779 1.19733 94.851 1.752C97.923 2.264 100.078 2.86133 101.315 3.544C102.595 4.184 103.235 4.824 103.235 5.464C103.235 7.68267 102.702 10.072 101.635 12.632C100.611 15.192 99.6083 16.472 98.627 16.472C98.4563 16.472 97.9017 16.28 96.963 15.896C94.147 14.6587 91.8003 14.04 89.923 14.04C88.0883 14.04 86.8297 14.2107 86.147 14.552C85.507 14.8933 85.187 15.4267 85.187 16.152C85.187 16.8347 85.6563 17.4107 86.595 17.88C87.5337 18.3067 88.6857 18.712 90.051 19.096C91.459 19.4373 92.9737 19.992 94.595 20.76C96.259 21.4853 97.795 22.36 99.203 23.384C100.611 24.3653 101.784 25.7733 102.723 27.608C103.662 29.4427 104.131 31.576 104.131 34.008C104.131 36.568 103.47 38.8933 102.147 40.984C101.336 42.264 100.291 43.3733 99.011 44.312ZM118.166 47C117.099 47 115.542 47 113.494 47C111.489 47 110.123 46.8507 109.398 46.552C108.673 46.2533 108.31 45.784 108.31 45.144V4.76C108.31 3.77866 109.611 3.01066 112.214 2.456C114.859 1.85866 117.675 1.56 120.662 1.56C123.649 1.56 125.782 1.944 127.062 2.712C128.342 3.48 129.089 4.29066 129.302 5.144L133.654 22.04H134.23L138.326 5.912C138.625 4.76 140.011 3.75733 142.486 2.904C145.003 2.008 147.755 1.56 150.742 1.56C153.729 1.56 155.926 1.79466 157.334 2.264C158.785 2.73333 159.51 3.33067 159.51 4.056V45.144C159.51 45.6987 158.294 46.1467 155.862 46.488C153.43 46.8293 150.465 47 146.966 47C143.467 47 141.718 46.3813 141.718 45.144C141.718 41.7733 142.081 35.7787 142.806 27.16H142.23L138.902 43.864C138.774 44.504 138.241 44.9733 137.302 45.272C136.406 45.5707 135.041 45.72 133.206 45.72C131.371 45.72 130.241 45.592 129.814 45.336C129.43 45.08 129.174 44.5893 129.046 43.864L125.59 27.16H125.014C125.782 35.9493 126.166 41.944 126.166 45.144C126.166 46.2533 123.499 46.872 118.166 47ZM182.479 45.464C182.479 45.9333 181.177 46.3173 178.575 46.616C175.972 46.872 173.348 47 170.703 47C168.1 47 166.436 46.8933 165.711 46.68C164.985 46.424 164.623 46.0187 164.623 45.464V5.656C164.623 4.71733 165.86 3.8 168.335 2.904C170.809 1.96533 173.583 1.496 176.655 1.496C179.385 1.496 181.177 2.072 182.031 3.224C182.329 3.65067 182.479 4.07733 182.479 4.504V45.464Z"/>
</mask>
<path d="M34.136 44.312C32.856 45.2507 31.064 46.04 28.76 46.68C26.4987 47.2773 23.5547 47.576 19.928 47.576C16.344 47.576 12.9307 47.2773 9.688 46.68C6.44533 46.0827 4.12 45.4213 2.712 44.696C1.304 43.9707 0.6 43.2667 0.6 42.584C0.6 40.1947 0.941333 37.72 1.624 35.16C2.30667 32.5573 3.11733 31.256 4.056 31.256C4.22667 31.256 5.99733 31.832 9.368 32.984C12.7387 34.136 15.2773 34.712 16.984 34.712C18.6907 34.712 19.8 34.5413 20.312 34.2C20.824 33.816 21.08 33.2827 21.08 32.6C21.08 31.9173 20.6107 31.32 19.672 30.808C18.7333 30.2533 17.56 29.784 16.152 29.4C14.744 28.9733 13.208 28.376 11.544 27.608C9.92267 26.84 8.408 25.9867 7 25.048C5.592 24.1093 4.41867 22.7867 3.48 21.08C2.54133 19.3307 2.072 17.3467 2.072 15.128C2.072 5.656 7.72533 0.919998 19.032 0.919998C23.256 0.919998 26.904 1.19733 29.976 1.752C33.048 2.264 35.2027 2.86133 36.44 3.544C37.72 4.184 38.36 4.824 38.36 5.464C38.36 7.68267 37.8267 10.072 36.76 12.632C35.736 15.192 34.7333 16.472 33.752 16.472C33.5813 16.472 33.0267 16.28 32.088 15.896C29.272 14.6587 26.9253 14.04 25.048 14.04C23.2133 14.04 21.9547 14.2107 21.272 14.552C20.632 14.8933 20.312 15.4267 20.312 16.152C20.312 16.8347 20.7813 17.4107 21.72 17.88C22.6587 18.3067 23.8107 18.712 25.176 19.096C26.584 19.4373 28.0987 19.992 29.72 20.76C31.384 21.4853 32.92 22.36 34.328 23.384C35.736 24.3653 36.9093 25.7733 37.848 27.608C38.7867 29.4427 39.256 31.576 39.256 34.008C39.256 36.568 38.5947 38.8933 37.272 40.984C36.4613 42.264 35.416 43.3733 34.136 44.312ZM61.291 45.464C61.291 45.9333 59.9897 46.3173 57.387 46.616C54.7843 46.872 52.1603 47 49.515 47C46.9123 47 45.2483 46.8933 44.523 46.68C43.7977 46.424 43.435 46.0187 43.435 45.464V5.656C43.435 4.71733 44.6723 3.8 47.147 2.904C49.6217 1.96533 52.395 1.496 55.467 1.496C58.1977 1.496 59.9897 2.072 60.843 3.224C61.1417 3.65067 61.291 4.07733 61.291 4.504V45.464ZM99.011 44.312C97.731 45.2507 95.939 46.04 93.635 46.68C91.3737 47.2773 88.4297 47.576 84.803 47.576C81.219 47.576 77.8057 47.2773 74.563 46.68C71.3203 46.0827 68.995 45.4213 67.587 44.696C66.179 43.9707 65.475 43.2667 65.475 42.584C65.475 40.1947 65.8163 37.72 66.499 35.16C67.1817 32.5573 67.9923 31.256 68.931 31.256C69.1017 31.256 70.8723 31.832 74.243 32.984C77.6137 34.136 80.1523 34.712 81.859 34.712C83.5657 34.712 84.675 34.5413 85.187 34.2C85.699 33.816 85.955 33.2827 85.955 32.6C85.955 31.9173 85.4857 31.32 84.547 30.808C83.6083 30.2533 82.435 29.784 81.027 29.4C79.619 28.9733 78.083 28.376 76.419 27.608C74.7977 26.84 73.283 25.9867 71.875 25.048C70.467 24.1093 69.2937 22.7867 68.355 21.08C67.4163 19.3307 66.947 17.3467 66.947 15.128C66.947 5.656 72.6003 0.919998 83.907 0.919998C88.131 0.919998 91.779 1.19733 94.851 1.752C97.923 2.264 100.078 2.86133 101.315 3.544C102.595 4.184 103.235 4.824 103.235 5.464C103.235 7.68267 102.702 10.072 101.635 12.632C100.611 15.192 99.6083 16.472 98.627 16.472C98.4563 16.472 97.9017 16.28 96.963 15.896C94.147 14.6587 91.8003 14.04 89.923 14.04C88.0883 14.04 86.8297 14.2107 86.147 14.552C85.507 14.8933 85.187 15.4267 85.187 16.152C85.187 16.8347 85.6563 17.4107 86.595 17.88C87.5337 18.3067 88.6857 18.712 90.051 19.096C91.459 19.4373 92.9737 19.992 94.595 20.76C96.259 21.4853 97.795 22.36 99.203 23.384C100.611 24.3653 101.784 25.7733 102.723 27.608C103.662 29.4427 104.131 31.576 104.131 34.008C104.131 36.568 103.47 38.8933 102.147 40.984C101.336 42.264 100.291 43.3733 99.011 44.312ZM118.166 47C117.099 47 115.542 47 113.494 47C111.489 47 110.123 46.8507 109.398 46.552C108.673 46.2533 108.31 45.784 108.31 45.144V4.76C108.31 3.77866 109.611 3.01066 112.214 2.456C114.859 1.85866 117.675 1.56 120.662 1.56C123.649 1.56 125.782 1.944 127.062 2.712C128.342 3.48 129.089 4.29066 129.302 5.144L133.654 22.04H134.23L138.326 5.912C138.625 4.76 140.011 3.75733 142.486 2.904C145.003 2.008 147.755 1.56 150.742 1.56C153.729 1.56 155.926 1.79466 157.334 2.264C158.785 2.73333 159.51 3.33067 159.51 4.056V45.144C159.51 45.6987 158.294 46.1467 155.862 46.488C153.43 46.8293 150.465 47 146.966 47C143.467 47 141.718 46.3813 141.718 45.144C141.718 41.7733 142.081 35.7787 142.806 27.16H142.23L138.902 43.864C138.774 44.504 138.241 44.9733 137.302 45.272C136.406 45.5707 135.041 45.72 133.206 45.72C131.371 45.72 130.241 45.592 129.814 45.336C129.43 45.08 129.174 44.5893 129.046 43.864L125.59 27.16H125.014C125.782 35.9493 126.166 41.944 126.166 45.144C126.166 46.2533 123.499 46.872 118.166 47ZM182.479 45.464C182.479 45.9333 181.177 46.3173 178.575 46.616C175.972 46.872 173.348 47 170.703 47C168.1 47 166.436 46.8933 165.711 46.68C164.985 46.424 164.623 46.0187 164.623 45.464V5.656C164.623 4.71733 165.86 3.8 168.335 2.904C170.809 1.96533 173.583 1.496 176.655 1.496C179.385 1.496 181.177 2.072 182.031 3.224C182.329 3.65067 182.479 4.07733 182.479 4.504V45.464Z" fill="white"/>
<path d="M34.136 44.312L31.1792 40.28L31.1792 40.28L34.136 44.312ZM28.76 46.68L30.037 51.5142L30.0676 51.5061L30.0982 51.4976L28.76 46.68ZM2.712 44.696L0.422217 49.1409H0.422217L2.712 44.696ZM1.624 35.16L6.45517 36.4483L6.45781 36.4384L6.4604 36.4286L1.624 35.16ZM9.368 32.984L10.985 28.2527L9.368 32.984ZM20.312 34.2L23.0855 38.3603L23.201 38.2833L23.312 38.2L20.312 34.2ZM19.672 30.808L17.1284 35.1126L17.2023 35.1563L17.2777 35.1975L19.672 30.808ZM16.152 29.4L14.702 34.1851L14.7689 34.2054L14.8364 34.2238L16.152 29.4ZM11.544 27.608L9.40357 32.1267L9.42609 32.1374L9.44871 32.1478L11.544 27.608ZM7 25.048L9.7735 20.8877L9.7735 20.8877L7 25.048ZM3.48 21.08L-0.925801 23.4441L-0.913558 23.4669L-0.90108 23.4896L3.48 21.08ZM29.976 1.752L29.0876 6.67244L29.1208 6.67843L29.154 6.68397L29.976 1.752ZM36.44 3.544L34.0246 7.92188L34.1133 7.97083L34.2039 8.01613L36.44 3.544ZM36.76 12.632L32.1446 10.7089L32.1309 10.7419L32.1176 10.775L36.76 12.632ZM32.088 15.896L30.0766 20.4736L30.1354 20.4994L30.1948 20.5237L32.088 15.896ZM21.272 14.552L19.0359 10.0799L18.9771 10.1093L18.9191 10.1402L21.272 14.552ZM21.72 17.88L19.4839 22.3521L19.5667 22.3935L19.651 22.4318L21.72 17.88ZM25.176 19.096L23.8223 23.9093L23.9097 23.9338L23.998 23.9552L25.176 19.096ZM29.72 20.76L27.5796 25.2787L27.6503 25.3122L27.7221 25.3435L29.72 20.76ZM34.328 23.384L31.3871 27.4277L31.4278 27.4572L31.469 27.486L34.328 23.384ZM37.848 27.608L42.2992 25.3306V25.3306L37.848 27.608ZM37.272 40.984L41.4961 43.6593L41.4974 43.6572L37.272 40.984ZM31.1792 40.28C30.5682 40.728 29.4087 41.3105 27.4218 41.8624L30.0982 51.4976C32.7193 50.7695 35.1438 49.7733 37.0928 48.344L31.1792 40.28ZM27.483 41.8458C25.8009 42.2901 23.3323 42.576 19.928 42.576V52.576C23.777 52.576 27.1964 52.2645 30.037 51.5142L27.483 41.8458ZM19.928 42.576C16.6218 42.576 13.5131 42.3005 10.5938 41.7627L8.78219 51.5973C12.3482 52.2542 16.0662 52.576 19.928 52.576V42.576ZM10.5938 41.7627C7.42944 41.1798 5.7181 40.6201 5.00178 40.2511L0.422217 49.1409C2.5219 50.2225 5.46123 50.9855 8.78219 51.5973L10.5938 41.7627ZM5.00178 40.2511C4.51985 40.0029 4.49942 39.9244 4.66353 40.0885C4.81971 40.2446 5.6 41.0953 5.6 42.584H-4.4C-4.4 44.7554 -3.26771 46.2994 -2.40753 47.1595C-1.53942 48.0276 -0.503846 48.6638 0.422217 49.1409L5.00178 40.2511ZM5.6 42.584C5.6 40.6739 5.87256 38.6331 6.45517 36.4483L-3.20717 33.8717C-3.98989 36.8069 -4.4 39.7154 -4.4 42.584H5.6ZM6.4604 36.4286C6.59736 35.9064 6.72346 35.5169 6.83001 35.2383C6.94047 34.9496 7.00268 34.852 6.9879 34.8757C6.98422 34.8816 6.80259 35.1827 6.36032 35.5117C5.86082 35.8833 5.0636 36.256 4.056 36.256V26.256C0.971637 26.256 -0.779196 28.4314 -1.4999 29.5883C-2.29823 30.8698 -2.82436 32.4121 -3.2124 33.8914L6.4604 36.4286ZM4.056 36.256C3.54945 36.256 3.16069 36.1724 3.15335 36.171C3.05077 36.1511 2.98207 36.1337 2.97166 36.131C2.94569 36.1245 2.96681 36.1293 3.06177 36.1575C3.24178 36.2109 3.5359 36.3031 3.96527 36.4427C4.8147 36.7191 6.07206 37.1415 7.75097 37.7153L10.985 28.2527C9.29327 27.6745 7.97997 27.2329 7.05873 26.9333C6.60277 26.7849 6.21155 26.6611 5.90624 26.5705C5.75853 26.5267 5.58698 26.4775 5.41834 26.435C5.33659 26.4143 5.20907 26.3834 5.06015 26.3545C5.00648 26.3441 4.58389 26.256 4.056 26.256V36.256ZM7.75097 37.7153C11.2029 38.8951 14.4019 39.712 16.984 39.712V29.712C16.1528 29.712 14.2744 29.3769 10.985 28.2527L7.75097 37.7153ZM16.984 39.712C17.9754 39.712 18.9565 39.6643 19.8563 39.5259C20.633 39.4064 21.9108 39.1434 23.0855 38.3603L17.5385 30.0397C17.7378 29.9069 17.9106 29.8189 18.0341 29.7631C18.1585 29.7069 18.2546 29.6737 18.3103 29.6561C18.4142 29.6233 18.4354 29.6268 18.3357 29.6421C18.2428 29.6564 18.0852 29.6749 17.8495 29.6892C17.6165 29.7033 17.3299 29.712 16.984 29.712V39.712ZM23.312 38.2C25.1776 36.8008 26.08 34.7343 26.08 32.6H16.08C16.08 32.3075 16.1379 31.8536 16.3804 31.3483C16.6281 30.8323 16.979 30.4497 17.312 30.2L23.312 38.2ZM26.08 32.6C26.08 29.1913 23.6302 27.2716 22.0663 26.4185L17.2777 35.1975C17.3771 35.2517 17.1146 35.134 16.7964 34.7291C16.4215 34.252 16.08 33.5057 16.08 32.6H26.08ZM22.2156 26.5034C20.788 25.6598 19.1708 25.0407 17.4676 24.5762L14.8364 34.2238C15.9492 34.5273 16.6786 34.8469 17.1284 35.1126L22.2156 26.5034ZM17.602 24.6149C16.4603 24.2689 15.1426 23.762 13.6393 23.0682L9.44871 32.1478C11.2734 32.99 13.0277 33.6778 14.702 34.1851L17.602 24.6149ZM13.6844 23.0893C12.2695 22.4191 10.9678 21.6839 9.7735 20.8877L4.2265 29.2082C5.84821 30.2894 7.57585 31.2609 9.40357 32.1267L13.6844 23.0893ZM9.7735 20.8877C9.12894 20.458 8.4712 19.7797 7.86108 18.6704L-0.90108 23.4896C0.366133 25.7936 2.05506 27.7606 4.2265 29.2083L9.7735 20.8877ZM7.8858 18.7159C7.38129 17.7757 7.072 16.6203 7.072 15.128H-2.928C-2.928 18.0731 -2.29863 20.8856 -0.925801 23.4441L7.8858 18.7159ZM7.072 15.128C7.072 11.4181 8.13703 9.46576 9.52287 8.30479C11.0783 7.00177 13.9548 5.92 19.032 5.92V-4.08C12.8025 -4.08 7.19905 -2.79377 3.10113 0.639203C-1.16636 4.21423 -2.928 9.36595 -2.928 15.128H7.072ZM19.032 5.92C23.0548 5.92 26.3906 6.18549 29.0876 6.67244L30.8644 -3.16844C27.4174 -3.79082 23.4572 -4.08 19.032 -4.08V5.92ZM29.154 6.68397C32.1758 7.18761 33.5919 7.68316 34.0246 7.92188L38.8554 -0.833887C36.8134 -1.9605 33.9202 -2.65961 30.798 -3.17997L29.154 6.68397ZM34.2039 8.01613C34.6086 8.21849 34.5592 8.25429 34.3445 8.03953C34.1195 7.81455 33.36 6.93778 33.36 5.464H43.36C43.36 3.35021 42.2805 1.83345 41.4155 0.968464C40.5608 0.113709 39.5514 -0.490494 38.6761 -0.928137L34.2039 8.01613ZM33.36 5.464C33.36 6.87988 33.0187 8.6111 32.1446 10.7089L41.3754 14.5551C42.6346 11.5329 43.36 8.48545 43.36 5.464H33.36ZM32.1176 10.775C31.9103 11.2934 31.7273 11.6879 31.5741 11.9782C31.4169 12.276 31.3213 12.4065 31.3039 12.4287C31.2765 12.4636 31.4219 12.2625 31.7814 12.0305C32.1756 11.7762 32.8559 11.472 33.752 11.472V21.472C36.5567 21.472 38.3409 19.6615 39.1761 18.5953C40.1032 17.4118 40.8184 15.9489 41.4024 14.489L32.1176 10.775ZM33.752 11.472C33.9668 11.472 34.1423 11.4866 34.261 11.4996C34.3837 11.5131 34.4843 11.5292 34.5558 11.5421C34.6941 11.567 34.7922 11.5921 34.8315 11.6025C34.8763 11.6143 34.8997 11.6218 34.8957 11.6206C34.8933 11.6198 34.8767 11.6145 34.8436 11.6031C34.7754 11.5795 34.6698 11.541 34.5194 11.483C34.3711 11.4258 34.1925 11.3547 33.9812 11.2683L30.1948 20.5237C30.6977 20.7295 31.1682 20.913 31.5724 21.0529C31.771 21.1217 32.0148 21.2013 32.2725 21.2695C32.4051 21.3046 33.0114 21.472 33.752 21.472V11.472ZM34.0994 11.3184C31.0042 9.95839 27.9217 9.04 25.048 9.04V19.04C25.9289 19.04 27.5398 19.3589 30.0766 20.4736L34.0994 11.3184ZM25.048 9.04C23.9954 9.04 22.982 9.0878 22.0562 9.21334C21.1937 9.33028 20.0873 9.55416 19.0359 10.0799L23.5081 19.0241C23.3952 19.0805 23.3072 19.1153 23.254 19.1345C23.2001 19.1539 23.1693 19.1621 23.1671 19.1627C23.1644 19.1634 23.1819 19.1587 23.2229 19.1509C23.2635 19.1431 23.3218 19.1332 23.3998 19.1227C23.7326 19.0775 24.2659 19.04 25.048 19.04V9.04ZM18.9191 10.1402C17.9341 10.6655 16.9635 11.4706 16.2645 12.6355C15.5656 13.8005 15.312 15.0357 15.312 16.152H25.312C25.312 16.5429 25.2184 17.1489 24.8395 17.7805C24.4605 18.4121 23.9699 18.7798 23.6249 18.9638L18.9191 10.1402ZM15.312 16.152C15.312 19.6383 17.8569 21.5386 19.4839 22.3521L23.9561 13.4079C23.8772 13.3684 24.1827 13.4989 24.5402 13.9376C24.9637 14.4574 25.312 15.2383 25.312 16.152H15.312ZM19.651 22.4318C20.8888 22.9945 22.2961 23.48 23.8223 23.9093L26.5297 14.2827C25.3253 13.944 24.4286 13.6189 23.789 13.3282L19.651 22.4318ZM23.998 23.9552C25.007 24.1999 26.1969 24.6237 27.5796 25.2787L31.8604 16.2413C30.0004 15.3603 28.161 14.6748 26.354 14.2367L23.998 23.9552ZM27.7221 25.3435C29.0673 25.9298 30.2852 26.6262 31.3871 27.4277L37.2689 19.3403C35.5548 18.0938 33.7007 17.0408 31.7179 16.1765L27.7221 25.3435ZM31.469 27.486C32.0823 27.9134 32.7568 28.6346 33.3968 29.8854L42.2992 25.3306C41.0619 22.9121 39.3897 20.8172 37.187 19.282L31.469 27.486ZM33.3968 29.8854C33.9152 30.8986 34.256 32.2258 34.256 34.008H44.256C44.256 30.9262 43.6582 27.9867 42.2992 25.3306L33.3968 29.8854ZM34.256 34.008C34.256 35.6563 33.845 37.0487 33.0466 38.3108L41.4974 43.6572C43.3443 40.7379 44.256 37.4797 44.256 34.008H34.256ZM33.0479 38.3087C32.587 39.0364 31.9801 39.6926 31.1792 40.28L37.0928 48.344C38.8519 47.054 40.3356 45.4916 41.4961 43.6593L33.0479 38.3087ZM57.387 46.616L57.8764 51.592L57.9168 51.588L57.957 51.5834L57.387 46.616ZM44.523 46.68L42.8589 51.395L42.9844 51.4393L43.1122 51.4768L44.523 46.68ZM47.147 2.904L48.8492 7.60533L48.8848 7.59243L48.9203 7.57899L47.147 2.904ZM60.843 3.224L64.9392 0.356686L64.9007 0.301749L64.8608 0.247864L60.843 3.224ZM56.291 45.464C56.291 44.2873 56.7195 43.338 57.1842 42.698C57.6119 42.1091 58.0698 41.7732 58.3052 41.6188C58.7473 41.3289 59.0491 41.2644 58.8999 41.3084C58.6738 41.3751 58.0439 41.5078 56.817 41.6486L57.957 51.5834C59.3328 51.4255 60.6548 51.2169 61.7301 50.8996C62.2316 50.7516 63.0213 50.4845 63.7888 49.9812C64.4178 49.5688 66.291 48.1468 66.291 45.464H56.291ZM56.8976 41.64C54.4594 41.8798 51.9988 42 49.515 42V52C52.3219 52 55.1093 51.8642 57.8764 51.592L56.8976 41.64ZM49.515 42C48.2685 42 47.3188 41.9741 46.6349 41.9302C46.2938 41.9084 46.0574 41.8844 45.9067 41.8642C45.7312 41.8407 45.7709 41.8352 45.9338 41.8832L43.1122 51.4768C44.0491 51.7524 45.1265 51.8541 45.9951 51.9098C46.9752 51.9726 48.1589 52 49.515 52V42ZM46.1871 41.965C46.3075 42.0075 46.8699 42.2205 47.4332 42.85C48.0899 43.584 48.435 44.538 48.435 45.464H38.435C38.435 46.9447 38.9614 48.3787 39.9808 49.518C40.9067 50.5529 42.0131 51.0965 42.8589 51.395L46.1871 41.965ZM48.435 45.464V5.656H38.435V45.464H48.435ZM48.435 5.656C48.435 6.58198 48.1152 7.29751 47.8273 7.7295C47.6907 7.93435 47.5636 8.07386 47.4823 8.15471C47.4006 8.23593 47.3469 8.27607 47.3408 8.28056C47.3374 8.28311 47.4422 8.20716 47.7177 8.0726C47.985 7.94203 48.3553 7.78415 48.8492 7.60533L45.4448 -1.79733C44.0253 -1.28339 42.5736 -0.633589 41.3852 0.247438C40.3096 1.04488 38.435 2.8073 38.435 5.656H48.435ZM48.9203 7.57899C50.7453 6.88675 52.9051 6.496 55.467 6.496V-3.504C51.8849 -3.504 48.4981 -2.95608 45.3737 -1.77099L48.9203 7.57899ZM55.467 6.496C56.5253 6.496 57.0955 6.61311 57.329 6.68814C57.539 6.75565 57.1898 6.69235 56.8252 6.20013L64.8608 0.247864C62.4824 -2.963 58.4458 -3.504 55.467 -3.504V6.496ZM56.7468 6.09131C56.5889 5.86574 56.291 5.31116 56.291 4.504H66.291C66.291 2.8435 65.6944 1.43559 64.9392 0.356686L56.7468 6.09131ZM56.291 4.504V45.464H66.291V4.504H56.291ZM99.011 44.312L96.0542 40.28V40.28L99.011 44.312ZM93.635 46.68L94.912 51.5142L94.9426 51.5061L94.9732 51.4976L93.635 46.68ZM67.587 44.696L65.2972 49.1409L67.587 44.696ZM66.499 35.16L71.3302 36.4483L71.3328 36.4384L71.3354 36.4286L66.499 35.16ZM74.243 32.984L75.86 28.2527H75.86L74.243 32.984ZM85.187 34.2L87.9605 38.3603L88.076 38.2833L88.187 38.2L85.187 34.2ZM84.547 30.808L82.0034 35.1126L82.0773 35.1563L82.1527 35.1975L84.547 30.808ZM81.027 29.4L79.577 34.1851L79.6439 34.2054L79.7114 34.2238L81.027 29.4ZM76.419 27.608L74.2786 32.1267L74.3011 32.1374L74.3237 32.1478L76.419 27.608ZM71.875 25.048L74.6485 20.8877V20.8877L71.875 25.048ZM68.355 21.08L63.9492 23.4441L63.9614 23.4669L63.9739 23.4896L68.355 21.08ZM94.851 1.752L93.9626 6.67244L93.9958 6.67843L94.029 6.68397L94.851 1.752ZM101.315 3.544L98.8996 7.92188L98.9883 7.97083L99.0789 8.01613L101.315 3.544ZM101.635 12.632L97.0196 10.7089L97.0059 10.7419L96.9926 10.775L101.635 12.632ZM96.963 15.896L94.9516 20.4736L95.0104 20.4994L95.0698 20.5237L96.963 15.896ZM86.147 14.552L83.9109 10.0799L83.8521 10.1093L83.7941 10.1402L86.147 14.552ZM86.595 17.88L84.3589 22.3521L84.4417 22.3935L84.526 22.4318L86.595 17.88ZM90.051 19.096L88.6973 23.9093L88.7847 23.9338L88.873 23.9552L90.051 19.096ZM94.595 20.76L92.4546 25.2787L92.5253 25.3122L92.5971 25.3435L94.595 20.76ZM99.203 23.384L96.2621 27.4277L96.3028 27.4572L96.344 27.486L99.203 23.384ZM102.723 27.608L107.174 25.3306L107.174 25.3306L102.723 27.608ZM102.147 40.984L106.371 43.6593L106.372 43.6572L102.147 40.984ZM96.0542 40.28C95.4432 40.728 94.2837 41.3105 92.2968 41.8624L94.9732 51.4976C97.5943 50.7695 100.019 49.7733 101.968 48.344L96.0542 40.28ZM92.358 41.8458C90.6759 42.2901 88.2073 42.576 84.803 42.576V52.576C88.652 52.576 92.0714 52.2645 94.912 51.5142L92.358 41.8458ZM84.803 42.576C81.4968 42.576 78.3881 42.3005 75.4688 41.7627L73.6572 51.5973C77.2232 52.2542 80.9412 52.576 84.803 52.576V42.576ZM75.4688 41.7627C72.3044 41.1798 70.5931 40.6201 69.8768 40.2511L65.2972 49.1409C67.3969 50.2225 70.3362 50.9855 73.6572 51.5973L75.4688 41.7627ZM69.8768 40.2511C69.3948 40.0029 69.3744 39.9244 69.5385 40.0885C69.6947 40.2446 70.475 41.0953 70.475 42.584H60.475C60.475 44.7554 61.6073 46.2994 62.4675 47.1595C63.3356 48.0276 64.3712 48.6638 65.2972 49.1409L69.8768 40.2511ZM70.475 42.584C70.475 40.6739 70.7476 38.6331 71.3302 36.4483L61.6678 33.8717C60.8851 36.8069 60.475 39.7154 60.475 42.584H70.475ZM71.3354 36.4286C71.4724 35.9064 71.5985 35.5169 71.705 35.2383C71.8155 34.9496 71.8777 34.852 71.8629 34.8757C71.8592 34.8816 71.6776 35.1827 71.2353 35.5117C70.7358 35.8833 69.9386 36.256 68.931 36.256V26.256C65.8466 26.256 64.0958 28.4314 63.3751 29.5883C62.5768 30.8698 62.0506 32.4121 61.6626 33.8914L71.3354 36.4286ZM68.931 36.256C68.4244 36.256 68.0357 36.1724 68.0284 36.171C67.9258 36.1511 67.8571 36.1337 67.8467 36.131C67.8207 36.1245 67.8418 36.1293 67.9368 36.1575C68.1168 36.2109 68.4109 36.3031 68.8403 36.4427C69.6897 36.7191 70.9471 37.1415 72.626 37.7153L75.86 28.2527C74.1683 27.6745 72.855 27.2329 71.9337 26.9333C71.4778 26.7849 71.0866 26.6611 70.7812 26.5705C70.6335 26.5267 70.462 26.4775 70.2933 26.435C70.2116 26.4143 70.0841 26.3834 69.9352 26.3545C69.8815 26.3441 69.4589 26.256 68.931 26.256V36.256ZM72.626 37.7153C76.0779 38.8951 79.2769 39.712 81.859 39.712V29.712C81.0278 29.712 79.1494 29.3769 75.86 28.2527L72.626 37.7153ZM81.859 39.712C82.8504 39.712 83.8315 39.6643 84.7313 39.5259C85.508 39.4064 86.7858 39.1434 87.9605 38.3603L82.4135 30.0397C82.6128 29.9069 82.7856 29.8189 82.9091 29.7631C83.0335 29.7069 83.1296 29.6737 83.1853 29.6561C83.2892 29.6233 83.3104 29.6268 83.2107 29.6421C83.1178 29.6564 82.9602 29.6749 82.7245 29.6892C82.4915 29.7033 82.2049 29.712 81.859 29.712V39.712ZM88.187 38.2C90.0526 36.8008 90.955 34.7343 90.955 32.6H80.955C80.955 32.3075 81.0129 31.8536 81.2554 31.3483C81.5031 30.8323 81.854 30.4497 82.187 30.2L88.187 38.2ZM90.955 32.6C90.955 29.1913 88.5052 27.2716 86.9413 26.4185L82.1527 35.1975C82.2521 35.2517 81.9896 35.134 81.6714 34.7291C81.2965 34.252 80.955 33.5057 80.955 32.6H90.955ZM87.0906 26.5034C85.663 25.6598 84.0458 25.0407 82.3426 24.5762L79.7114 34.2238C80.8242 34.5273 81.5536 34.8469 82.0034 35.1126L87.0906 26.5034ZM82.477 24.6149C81.3353 24.2689 80.0176 23.762 78.5143 23.0682L74.3237 32.1478C76.1484 32.99 77.9027 33.6778 79.577 34.1851L82.477 24.6149ZM78.5594 23.0893C77.1445 22.4191 75.8428 21.6839 74.6485 20.8877L69.1015 29.2082C70.7232 30.2894 72.4508 31.2609 74.2786 32.1267L78.5594 23.0893ZM74.6485 20.8877C74.0039 20.458 73.3462 19.7797 72.7361 18.6704L63.9739 23.4896C65.2411 25.7936 66.9301 27.7606 69.1015 29.2083L74.6485 20.8877ZM72.7608 18.7159C72.2563 17.7757 71.947 16.6203 71.947 15.128H61.947C61.947 18.0731 62.5764 20.8856 63.9492 23.4441L72.7608 18.7159ZM71.947 15.128C71.947 11.4181 73.012 9.46576 74.3979 8.30479C75.9533 7.00177 78.8298 5.92 83.907 5.92V-4.08C77.6775 -4.08 72.0741 -2.79377 67.9761 0.639203C63.7086 4.21423 61.947 9.36595 61.947 15.128H71.947ZM83.907 5.92C87.9298 5.92 91.2656 6.18549 93.9626 6.67244L95.7394 -3.16844C92.2924 -3.79082 88.3322 -4.08 83.907 -4.08V5.92ZM94.029 6.68397C97.0508 7.18761 98.4669 7.68316 98.8996 7.92188L103.73 -0.833887C101.688 -1.9605 98.7952 -2.65961 95.673 -3.17997L94.029 6.68397ZM99.0789 8.01613C99.4836 8.21849 99.4342 8.25429 99.2195 8.03953C98.9945 7.81455 98.235 6.93778 98.235 5.464H108.235C108.235 3.35021 107.156 1.83345 106.291 0.968464C105.436 0.113709 104.426 -0.490494 103.551 -0.928137L99.0789 8.01613ZM98.235 5.464C98.235 6.87988 97.8937 8.6111 97.0196 10.7089L106.25 14.5551C107.51 11.5329 108.235 8.48545 108.235 5.464H98.235ZM96.9926 10.775C96.7853 11.2934 96.6023 11.6879 96.4491 11.9782C96.2919 12.276 96.1963 12.4065 96.1789 12.4287C96.1515 12.4636 96.2969 12.2625 96.6564 12.0305C97.0506 11.7762 97.7309 11.472 98.627 11.472V21.472C101.432 21.472 103.216 19.6615 104.051 18.5953C104.978 17.4118 105.693 15.9489 106.277 14.489L96.9926 10.775ZM98.627 11.472C98.8418 11.472 99.0173 11.4866 99.136 11.4996C99.2587 11.5131 99.3593 11.5292 99.4308 11.5421C99.5691 11.567 99.6672 11.5921 99.7065 11.6025C99.7513 11.6143 99.7747 11.6218 99.7707 11.6206C99.7683 11.6198 99.7517 11.6145 99.7186 11.6031C99.6504 11.5795 99.5447 11.541 99.3944 11.483C99.2461 11.4258 99.0675 11.3547 98.8562 11.2683L95.0698 20.5237C95.5727 20.7295 96.0432 20.913 96.4474 21.0529C96.646 21.1217 96.8898 21.2013 97.1475 21.2695C97.2801 21.3046 97.8864 21.472 98.627 21.472V11.472ZM98.9744 11.3184C95.8792 9.95839 92.7967 9.04 89.923 9.04V19.04C90.8039 19.04 92.4148 19.3589 94.9516 20.4736L98.9744 11.3184ZM89.923 9.04C88.8704 9.04 87.857 9.0878 86.9312 9.21334C86.0687 9.33028 84.9623 9.55416 83.9109 10.0799L88.3831 19.0241C88.2702 19.0805 88.1822 19.1153 88.129 19.1345C88.0751 19.1539 88.0443 19.1621 88.0421 19.1627C88.0394 19.1634 88.0569 19.1587 88.0979 19.1509C88.1385 19.1431 88.1968 19.1332 88.2748 19.1227C88.6076 19.0775 89.1409 19.04 89.923 19.04V9.04ZM83.7941 10.1402C82.8091 10.6655 81.8385 11.4706 81.1395 12.6355C80.4406 13.8005 80.187 15.0357 80.187 16.152H90.187C90.187 16.5429 90.0934 17.1489 89.7145 17.7805C89.3355 18.4121 88.8449 18.7798 88.4999 18.9638L83.7941 10.1402ZM80.187 16.152C80.187 19.6383 82.7319 21.5386 84.3589 22.3521L88.8311 13.4079C88.7522 13.3684 89.0577 13.4989 89.4152 13.9376C89.8387 14.4574 90.187 15.2383 90.187 16.152H80.187ZM84.526 22.4318C85.7638 22.9945 87.1711 23.48 88.6973 23.9093L91.4047 14.2827C90.2003 13.944 89.3036 13.6189 88.664 13.3282L84.526 22.4318ZM88.873 23.9552C89.882 24.1999 91.0719 24.6237 92.4546 25.2787L96.7354 16.2413C94.8754 15.3603 93.036 14.6748 91.229 14.2367L88.873 23.9552ZM92.5971 25.3435C93.9423 25.9298 95.1602 26.6262 96.2621 27.4277L102.144 19.3403C100.43 18.0938 98.5757 17.0408 96.5929 16.1765L92.5971 25.3435ZM96.344 27.486C96.9573 27.9134 97.6318 28.6346 98.2718 29.8854L107.174 25.3306C105.937 22.9121 104.265 20.8172 102.062 19.282L96.344 27.486ZM98.2718 29.8854C98.7902 30.8986 99.131 32.2258 99.131 34.008H109.131C109.131 30.9262 108.533 27.9867 107.174 25.3306L98.2718 29.8854ZM99.131 34.008C99.131 35.6563 98.72 37.0487 97.9216 38.3108L106.372 43.6572C108.219 40.7379 109.131 37.4797 109.131 34.008H99.131ZM97.9229 38.3087C97.462 39.0364 96.8551 39.6926 96.0542 40.28L101.968 48.344C103.727 47.054 105.211 45.4916 106.371 43.6593L97.9229 38.3087ZM118.166 47V52H118.226L118.286 51.9986L118.166 47ZM109.398 46.552L111.302 41.9286L109.398 46.552ZM112.214 2.456L113.256 7.34618L113.286 7.33987L113.315 7.3332L112.214 2.456ZM129.302 5.144L124.451 6.35668L124.456 6.37394L124.46 6.39117L129.302 5.144ZM133.654 22.04L128.812 23.2872L129.779 27.04H133.654V22.04ZM134.23 22.04V27.04H138.119L139.076 23.2708L134.23 22.04ZM138.326 5.912L133.486 4.65718L133.483 4.6692L133.48 4.68123L138.326 5.912ZM142.486 2.904L144.116 7.63087L144.139 7.6228L144.163 7.61451L142.486 2.904ZM157.334 2.264L155.753 7.00741L155.774 7.01441L155.795 7.02122L157.334 2.264ZM155.862 46.488L156.557 51.4395L155.862 46.488ZM142.806 27.16L147.788 27.5793L148.244 22.16H142.806V27.16ZM142.23 27.16V22.16H138.128L137.326 26.183L142.23 27.16ZM138.902 43.864L143.805 44.8446L143.806 44.841L138.902 43.864ZM137.302 45.272L135.786 40.5074L135.753 40.5178L135.721 40.5286L137.302 45.272ZM129.814 45.336L127.04 49.4963L127.139 49.5622L127.242 49.6235L129.814 45.336ZM129.046 43.864L133.97 42.9951L133.957 42.9228L133.942 42.851L129.046 43.864ZM125.59 27.16L130.486 26.147L129.661 22.16H125.59V27.16ZM125.014 27.16V22.16H119.558L120.033 27.5952L125.014 27.16ZM118.166 42C118.164 42 118.162 42 118.16 42C118.158 42 118.156 42 118.153 42C118.151 42 118.149 42 118.147 42C118.145 42 118.143 42 118.141 42C118.139 42 118.137 42 118.135 42C118.133 42 118.13 42 118.128 42C118.126 42 118.124 42 118.122 42C118.12 42 118.118 42 118.116 42C118.114 42 118.111 42 118.109 42C118.107 42 118.105 42 118.103 42C118.101 42 118.099 42 118.097 42C118.094 42 118.092 42 118.09 42C118.088 42 118.086 42 118.084 42C118.082 42 118.08 42 118.077 42C118.075 42 118.073 42 118.071 42C118.069 42 118.067 42 118.065 42C118.062 42 118.06 42 118.058 42C118.056 42 118.054 42 118.052 42C118.05 42 118.047 42 118.045 42C118.043 42 118.041 42 118.039 42C118.037 42 118.034 42 118.032 42C118.03 42 118.028 42 118.026 42C118.024 42 118.021 42 118.019 42C118.017 42 118.015 42 118.013 42C118.011 42 118.008 42 118.006 42C118.004 42 118.002 42 118 42C117.998 42 117.995 42 117.993 42C117.991 42 117.989 42 117.987 42C117.984 42 117.982 42 117.98 42C117.978 42 117.976 42 117.973 42C117.971 42 117.969 42 117.967 42C117.965 42 117.962 42 117.96 42C117.958 42 117.956 42 117.954 42C117.951 42 117.949 42 117.947 42C117.945 42 117.943 42 117.94 42C117.938 42 117.936 42 117.934 42C117.932 42 117.929 42 117.927 42C117.925 42 117.923 42 117.92 42C117.918 42 117.916 42 117.914 42C117.911 42 117.909 42 117.907 42C117.905 42 117.903 42 117.9 42C117.898 42 117.896 42 117.894 42C117.891 42 117.889 42 117.887 42C117.885 42 117.882 42 117.88 42C117.878 42 117.876 42 117.873 42C117.871 42 117.869 42 117.867 42C117.864 42 117.862 42 117.86 42C117.858 42 117.855 42 117.853 42C117.851 42 117.849 42 117.846 42C117.844 42 117.842 42 117.839 42C117.837 42 117.835 42 117.833 42C117.83 42 117.828 42 117.826 42C117.824 42 117.821 42 117.819 42C117.817 42 117.814 42 117.812 42C117.81 42 117.808 42 117.805 42C117.803 42 117.801 42 117.798 42C117.796 42 117.794 42 117.792 42C117.789 42 117.787 42 117.785 42C117.782 42 117.78 42 117.778 42C117.775 42 117.773 42 117.771 42C117.768 42 117.766 42 117.764 42C117.762 42 117.759 42 117.757 42C117.755 42 117.752 42 117.75 42C117.748 42 117.745 42 117.743 42C117.741 42 117.738 42 117.736 42C117.734 42 117.731 42 117.729 42C117.727 42 117.724 42 117.722 42C117.72 42 117.717 42 117.715 42C117.713 42 117.71 42 117.708 42C117.706 42 117.703 42 117.701 42C117.699 42 117.696 42 117.694 42C117.692 42 117.689 42 117.687 42C117.685 42 117.682 42 117.68 42C117.677 42 117.675 42 117.673 42C117.67 42 117.668 42 117.666 42C117.663 42 117.661 42 117.659 42C117.656 42 117.654 42 117.651 42C117.649 42 117.647 42 117.644 42C117.642 42 117.64 42 117.637 42C117.635 42 117.632 42 117.63 42C117.628 42 117.625 42 117.623 42C117.621 42 117.618 42 117.616 42C117.613 42 117.611 42 117.609 42C117.606 42 117.604 42 117.601 42C117.599 42 117.597 42 117.594 42C117.592 42 117.589 42 117.587 42C117.585 42 117.582 42 117.58 42C117.577 42 117.575 42 117.573 42C117.57 42 117.568 42 117.565 42C117.563 42 117.56 42 117.558 42C117.556 42 117.553 42 117.551 42C117.548 42 117.546 42 117.543 42C117.541 42 117.539 42 117.536 42C117.534 42 117.531 42 117.529 42C117.526 42 117.524 42 117.522 42C117.519 42 117.517 42 117.514 42C117.512 42 117.509 42 117.507 42C117.504 42 117.502 42 117.5 42C117.497 42 117.495 42 117.492 42C117.49 42 117.487 42 117.485 42C117.482 42 117.48 42 117.477 42C117.475 42 117.473 42 117.47 42C117.468 42 117.465 42 117.463 42C117.46 42 117.458 42 117.455 42C117.453 42 117.45 42 117.448 42C117.445 42 117.443 42 117.44 42C117.438 42 117.435 42 117.433 42C117.43 42 117.428 42 117.426 42C117.423 42 117.421 42 117.418 42C117.416 42 117.413 42 117.411 42C117.408 42 117.406 42 117.403 42C117.401 42 117.398 42 117.396 42C117.393 42 117.391 42 117.388 42C117.386 42 117.383 42 117.381 42C117.378 42 117.376 42 117.373 42C117.37 42 117.368 42 117.365 42C117.363 42 117.36 42 117.358 42C117.355 42 117.353 42 117.35 42C117.348 42 117.345 42 117.343 42C117.34 42 117.338 42 117.335 42C117.333 42 117.33 42 117.328 42C117.325 42 117.322 42 117.32 42C117.317 42 117.315 42 117.312 42C117.31 42 117.307 42 117.305 42C117.302 42 117.3 42 117.297 42C117.294 42 117.292 42 117.289 42C117.287 42 117.284 42 117.282 42C117.279 42 117.277 42 117.274 42C117.271 42 117.269 42 117.266 42C117.264 42 117.261 42 117.259 42C117.256 42 117.253 42 117.251 42C117.248 42 117.246 42 117.243 42C117.241 42 117.238 42 117.235 42C117.233 42 117.23 42 117.228 42C117.225 42 117.223 42 117.22 42C117.217 42 117.215 42 117.212 42C117.21 42 117.207 42 117.204 42C117.202 42 117.199 42 117.197 42C117.194 42 117.191 42 117.189 42C117.186 42 117.184 42 117.181 42C117.178 42 117.176 42 117.173 42C117.171 42 117.168 42 117.165 42C117.163 42 117.16 42 117.157 42C117.155 42 117.152 42 117.15 42C117.147 42 117.144 42 117.142 42C117.139 42 117.136 42 117.134 42C117.131 42 117.129 42 117.126 42C117.123 42 117.121 42 117.118 42C117.115 42 117.113 42 117.11 42C117.107 42 117.105 42 117.102 42C117.1 42 117.097 42 117.094 42C117.092 42 117.089 42 117.086 42C117.084 42 117.081 42 117.078 42C117.076 42 117.073 42 117.07 42C117.068 42 117.065 42 117.062 42C117.06 42 117.057 42 117.054 42C117.052 42 117.049 42 117.046 42C117.044 42 117.041 42 117.038 42C117.036 42 117.033 42 117.03 42C117.028 42 117.025 42 117.022 42C117.02 42 117.017 42 117.014 42C117.012 42 117.009 42 117.006 42C117.003 42 117.001 42 116.998 42C116.995 42 116.993 42 116.99 42C116.987 42 116.985 42 116.982 42C116.979 42 116.976 42 116.974 42C116.971 42 116.968 42 116.966 42C116.963 42 116.96 42 116.958 42C116.955 42 116.952 42 116.949 42C116.947 42 116.944 42 116.941 42C116.938 42 116.936 42 116.933 42C116.93 42 116.928 42 116.925 42C116.922 42 116.919 42 116.917 42C116.914 42 116.911 42 116.908 42C116.906 42 116.903 42 116.9 42C116.898 42 116.895 42 116.892 42C116.889 42 116.887 42 116.884 42C116.881 42 116.878 42 116.876 42C116.873 42 116.87 42 116.867 42C116.865 42 116.862 42 116.859 42C116.856 42 116.854 42 116.851 42C116.848 42 116.845 42 116.842 42C116.84 42 116.837 42 116.834 42C116.831 42 116.829 42 116.826 42C116.823 42 116.82 42 116.818 42C116.815 42 116.812 42 116.809 42C116.806 42 116.804 42 116.801 42C116.798 42 116.795 42 116.793 42C116.79 42 116.787 42 116.784 42C116.781 42 116.779 42 116.776 42C116.773 42 116.77 42 116.767 42C116.765 42 116.762 42 116.759 42C116.756 42 116.753 42 116.751 42C116.748 42 116.745 42 116.742 42C116.739 42 116.737 42 116.734 42C116.731 42 116.728 42 116.725 42C116.722 42 116.72 42 116.717 42C116.714 42 116.711 42 116.708 42C116.706 42 116.703 42 116.7 42C116.697 42 116.694 42 116.691 42C116.689 42 116.686 42 116.683 42C116.68 42 116.677 42 116.674 42C116.672 42 116.669 42 116.666 42C116.663 42 116.66 42 116.657 42C116.654 42 116.652 42 116.649 42C116.646 42 116.643 42 116.64 42C116.637 42 116.634 42 116.632 42C116.629 42 116.626 42 116.623 42C116.62 42 116.617 42 116.614 42C116.612 42 116.609 42 116.606 42C116.603 42 116.6 42 116.597 42C116.594 42 116.592 42 116.589 42C116.586 42 116.583 42 116.58 42C116.577 42 116.574 42 116.571 42C116.568 42 116.566 42 116.563 42C116.56 42 116.557 42 116.554 42C116.551 42 116.548 42 116.545 42C116.542 42 116.54 42 116.537 42C116.534 42 116.531 42 116.528 42C116.525 42 116.522 42 116.519 42C116.516 42 116.513 42 116.51 42C116.508 42 116.505 42 116.502 42C116.499 42 116.496 42 116.493 42C116.49 42 116.487 42 116.484 42C116.481 42 116.478 42 116.475 42C116.473 42 116.47 42 116.467 42C116.464 42 116.461 42 116.458 42C116.455 42 116.452 42 116.449 42C116.446 42 116.443 42 116.44 42C116.437 42 116.434 42 116.431 42C116.429 42 116.426 42 116.423 42C116.42 42 116.417 42 116.414 42C116.411 42 116.408 42 116.405 42C116.402 42 116.399 42 116.396 42C116.393 42 116.39 42 116.387 42C116.384 42 116.381 42 116.378 42C116.375 42 116.372 42 116.369 42C116.366 42 116.363 42 116.36 42C116.357 42 116.354 42 116.352 42C116.349 42 116.346 42 116.343 42C116.34 42 116.337 42 116.334 42C116.331 42 116.328 42 116.325 42C116.322 42 116.319 42 116.316 42C116.313 42 116.31 42 116.307 42C116.304 42 116.301 42 116.298 42C116.295 42 116.292 42 116.289 42C116.286 42 116.283 42 116.28 42C116.277 42 116.274 42 116.271 42C116.268 42 116.265 42 116.262 42C116.259 42 116.256 42 116.253 42C116.25 42 116.247 42 116.243 42C116.24 42 116.237 42 116.234 42C116.231 42 116.228 42 116.225 42C116.222 42 116.219 42 116.216 42C116.213 42 116.21 42 116.207 42C116.204 42 116.201 42 116.198 42C116.195 42 116.192 42 116.189 42C116.186 42 116.183 42 116.18 42C116.177 42 116.174 42 116.171 42C116.168 42 116.164 42 116.161 42C116.158 42 116.155 42 116.152 42C116.149 42 116.146 42 116.143 42C116.14 42 116.137 42 116.134 42C116.131 42 116.128 42 116.125 42C116.122 42 116.118 42 116.115 42C116.112 42 116.109 42 116.106 42C116.103 42 116.1 42 116.097 42C116.094 42 116.091 42 116.088 42C116.085 42 116.082 42 116.078 42C116.075 42 116.072 42 116.069 42C116.066 42 116.063 42 116.06 42C116.057 42 116.054 42 116.051 42C116.047 42 116.044 42 116.041 42C116.038 42 116.035 42 116.032 42C116.029 42 116.026 42 116.023 42C116.019 42 116.016 42 116.013 42C116.01 42 116.007 42 116.004 42C116.001 42 115.998 42 115.995 42C115.991 42 115.988 42 115.985 42C115.982 42 115.979 42 115.976 42C115.973 42 115.969 42 115.966 42C115.963 42 115.96 42 115.957 42C115.954 42 115.951 42 115.948 42C115.944 42 115.941 42 115.938 42C115.935 42 115.932 42 115.929 42C115.926 42 115.922 42 115.919 42C115.916 42 115.913 42 115.91 42C115.907 42 115.903 42 115.9 42C115.897 42 115.894 42 115.891 42C115.888 42 115.884 42 115.881 42C115.878 42 115.875 42 115.872 42C115.869 42 115.865 42 115.862 42C115.859 42 115.856 42 115.853 42C115.85 42 115.846 42 115.843 42C115.84 42 115.837 42 115.834 42C115.83 42 115.827 42 115.824 42C115.821 42 115.818 42 115.814 42C115.811 42 115.808 42 115.805 42C115.802 42 115.798 42 115.795 42C115.792 42 115.789 42 115.786 42C115.782 42 115.779 42 115.776 42C115.773 42 115.77 42 115.766 42C115.763 42 115.76 42 115.757 42C115.754 42 115.75 42 115.747 42C115.744 42 115.741 42 115.737 42C115.734 42 115.731 42 115.728 42C115.724 42 115.721 42 115.718 42C115.715 42 115.712 42 115.708 42C115.705 42 115.702 42 115.699 42C115.695 42 115.692 42 115.689 42C115.686 42 115.682 42 115.679 42C115.676 42 115.673 42 115.669 42C115.666 42 115.663 42 115.66 42C115.656 42 115.653 42 115.65 42C115.647 42 115.643 42 115.64 42C115.637 42 115.634 42 115.63 42C115.627 42 115.624 42 115.62 42C115.617 42 115.614 42 115.611 42C115.607 42 115.604 42 115.601 42C115.598 42 115.594 42 115.591 42C115.588 42 115.584 42 115.581 42C115.578 42 115.575 42 115.571 42C115.568 42 115.565 42 115.561 42C115.558 42 115.555 42 115.552 42C115.548 42 115.545 42 115.542 42C115.538 42 115.535 42 115.532 42C115.528 42 115.525 42 115.522 42C115.519 42 115.515 42 115.512 42C115.509 42 115.505 42 115.502 42C115.499 42 115.495 42 115.492 42C115.489 42 115.485 42 115.482 42C115.479 42 115.475 42 115.472 42C115.469 42 115.465 42 115.462 42C115.459 42 115.455 42 115.452 42C115.449 42 115.445 42 115.442 42C115.439 42 115.435 42 115.432 42C115.429 42 115.425 42 115.422 42C115.419 42 115.415 42 115.412 42C115.409 42 115.405 42 115.402 42C115.399 42 115.395 42 115.392 42C115.389 42 115.385 42 115.382 42C115.378 42 115.375 42 115.372 42C115.368 42 115.365 42 115.362 42C115.358 42 115.355 42 115.352 42C115.348 42 115.345 42 115.341 42C115.338 42 115.335 42 115.331 42C115.328 42 115.325 42 115.321 42C115.318 42 115.314 42 115.311 42C115.308 42 115.304 42 115.301 42C115.297 42 115.294 42 115.291 42C115.287 42 115.284 42 115.28 42C115.277 42 115.274 42 115.27 42C115.267 42 115.263 42 115.26 42C115.257 42 115.253 42 115.25 42C115.246 42 115.243 42 115.24 42C115.236 42 115.233 42 115.229 42C115.226 42 115.223 42 115.219 42C115.216 42 115.212 42 115.209 42C115.205 42 115.202 42 115.199 42C115.195 42 115.192 42 115.188 42C115.185 42 115.181 42 115.178 42C115.175 42 115.171 42 115.168 42C115.164 42 115.161 42 115.157 42C115.154 42 115.15 42 115.147 42C115.144 42 115.14 42 115.137 42C115.133 42 115.13 42 115.126 42C115.123 42 115.119 42 115.116 42C115.112 42 115.109 42 115.106 42C115.102 42 115.099 42 115.095 42C115.092 42 115.088 42 115.085 42C115.081 42 115.078 42 115.074 42C115.071 42 115.067 42 115.064 42C115.06 42 115.057 42 115.054 42C115.05 42 115.047 42 115.043 42C115.04 42 115.036 42 115.033 42C115.029 42 115.026 42 115.022 42C115.019 42 115.015 42 115.012 42C115.008 42 115.005 42 115.001 42C114.998 42 114.994 42 114.991 42C114.987 42 114.984 42 114.98 42C114.977 42 114.973 42 114.97 42C114.966 42 114.963 42 114.959 42C114.956 42 114.952 42 114.949 42C114.945 42 114.942 42 114.938 42C114.934 42 114.931 42 114.927 42C114.924 42 114.92 42 114.917 42C114.913 42 114.91 42 114.906 42C114.903 42 114.899 42 114.896 42C114.892 42 114.889 42 114.885 42C114.882 42 114.878 42 114.874 42C114.871 42 114.867 42 114.864 42C114.86 42 114.857 42 114.853 42C114.85 42 114.846 42 114.842 42C114.839 42 114.835 42 114.832 42C114.828 42 114.825 42 114.821 42C114.818 42 114.814 42 114.81 42C114.807 42 114.803 42 114.8 42C114.796 42 114.793 42 114.789 42C114.785 42 114.782 42 114.778 42C114.775 42 114.771 42 114.768 42C114.764 42 114.76 42 114.757 42C114.753 42 114.75 42 114.746 42C114.742 42 114.739 42 114.735 42C114.732 42 114.728 42 114.725 42C114.721 42 114.717 42 114.714 42C114.71 42 114.707 42 114.703 42C114.699 42 114.696 42 114.692 42C114.688 42 114.685 42 114.681 42C114.678 42 114.674 42 114.67 42C114.667 42 114.663 42 114.66 42C114.656 42 114.652 42 114.649 42C114.645 42 114.641 42 114.638 42C114.634 42 114.631 42 114.627 42C114.623 42 114.62 42 114.616 42C114.612 42 114.609 42 114.605 42C114.602 42 114.598 42 114.594 42C114.591 42 114.587 42 114.583 42C114.58 42 114.576 42 114.572 42C114.569 42 114.565 42 114.561 42C114.558 42 114.554 42 114.55 42C114.547 42 114.543 42 114.539 42C114.536 42 114.532 42 114.529 42C114.525 42 114.521 42 114.518 42C114.514 42 114.51 42 114.507 42C114.503 42 114.499 42 114.495 42C114.492 42 114.488 42 114.484 42C114.481 42 114.477 42 114.473 42C114.47 42 114.466 42 114.462 42C114.459 42 114.455 42 114.451 42C114.448 42 114.444 42 114.44 42C114.437 42 114.433 42 114.429 42C114.425 42 114.422 42 114.418 42C114.414 42 114.411 42 114.407 42C114.403 42 114.4 42 114.396 42C114.392 42 114.388 42 114.385 42C114.381 42 114.377 42 114.374 42C114.37 42 114.366 42 114.362 42C114.359 42 114.355 42 114.351 42C114.348 42 114.344 42 114.34 42C114.336 42 114.333 42 114.329 42C114.325 42 114.321 42 114.318 42C114.314 42 114.31 42 114.306 42C114.303 42 114.299 42 114.295 42C114.292 42 114.288 42 114.284 42C114.28 42 114.277 42 114.273 42C114.269 42 114.265 42 114.262 42C114.258 42 114.254 42 114.25 42C114.247 42 114.243 42 114.239 42C114.235 42 114.231 42 114.228 42C114.224 42 114.22 42 114.216 42C114.213 42 114.209 42 114.205 42C114.201 42 114.198 42 114.194 42C114.19 42 114.186 42 114.182 42C114.179 42 114.175 42 114.171 42C114.167 42 114.164 42 114.16 42C114.156 42 114.152 42 114.148 42C114.145 42 114.141 42 114.137 42C114.133 42 114.129 42 114.126 42C114.122 42 114.118 42 114.114 42C114.11 42 114.107 42 114.103 42C114.099 42 114.095 42 114.091 42C114.088 42 114.084 42 114.08 42C114.076 42 114.072 42 114.069 42C114.065 42 114.061 42 114.057 42C114.053 42 114.049 42 114.046 42C114.042 42 114.038 42 114.034 42C114.03 42 114.026 42 114.023 42C114.019 42 114.015 42 114.011 42C114.007 42 114.003 42 114 42C113.996 42 113.992 42 113.988 42C113.984 42 113.98 42 113.977 42C113.973 42 113.969 42 113.965 42C113.961 42 113.957 42 113.953 42C113.95 42 113.946 42 113.942 42C113.938 42 113.934 42 113.93 42C113.926 42 113.923 42 113.919 42C113.915 42 113.911 42 113.907 42C113.903 42 113.899 42 113.896 42C113.892 42 113.888 42 113.884 42C113.88 42 113.876 42 113.872 42C113.868 42 113.864 42 113.861 42C113.857 42 113.853 42 113.849 42C113.845 42 113.841 42 113.837 42C113.833 42 113.829 42 113.826 42C113.822 42 113.818 42 113.814 42C113.81 42 113.806 42 113.802 42C113.798 42 113.794 42 113.79 42C113.787 42 113.783 42 113.779 42C113.775 42 113.771 42 113.767 42C113.763 42 113.759 42 113.755 42C113.751 42 113.747 42 113.744 42C113.74 42 113.736 42 113.732 42C113.728 42 113.724 42 113.72 42C113.716 42 113.712 42 113.708 42C113.704 42 113.7 42 113.696 42C113.692 42 113.688 42 113.685 42C113.681 42 113.677 42 113.673 42C113.669 42 113.665 42 113.661 42C113.657 42 113.653 42 113.649 42C113.645 42 113.641 42 113.637 42C113.633 42 113.629 42 113.625 42C113.621 42 113.617 42 113.613 42C113.609 42 113.606 42 113.602 42C113.598 42 113.594 42 113.59 42C113.586 42 113.582 42 113.578 42C113.574 42 113.57 42 113.566 42C113.562 42 113.558 42 113.554 42C113.55 42 113.546 42 113.542 42C113.538 42 113.534 42 113.53 42C113.526 42 113.522 42 113.518 42C113.514 42 113.51 42 113.506 42C113.502 42 113.498 42 113.494 42V52C113.498 52 113.502 52 113.506 52C113.51 52 113.514 52 113.518 52C113.522 52 113.526 52 113.53 52C113.534 52 113.538 52 113.542 52C113.546 52 113.55 52 113.554 52C113.558 52 113.562 52 113.566 52C113.57 52 113.574 52 113.578 52C113.582 52 113.586 52 113.59 52C113.594 52 113.598 52 113.602 52C113.606 52 113.609 52 113.613 52C113.617 52 113.621 52 113.625 52C113.629 52 113.633 52 113.637 52C113.641 52 113.645 52 113.649 52C113.653 52 113.657 52 113.661 52C113.665 52 113.669 52 113.673 52C113.677 52 113.681 52 113.685 52C113.688 52 113.692 52 113.696 52C113.7 52 113.704 52 113.708 52C113.712 52 113.716 52 113.72 52C113.724 52 113.728 52 113.732 52C113.736 52 113.74 52 113.744 52C113.747 52 113.751 52 113.755 52C113.759 52 113.763 52 113.767 52C113.771 52 113.775 52 113.779 52C113.783 52 113.787 52 113.79 52C113.794 52 113.798 52 113.802 52C113.806 52 113.81 52 113.814 52C113.818 52 113.822 52 113.826 52C113.829 52 113.833 52 113.837 52C113.841 52 113.845 52 113.849 52C113.853 52 113.857 52 113.861 52C113.864 52 113.868 52 113.872 52C113.876 52 113.88 52 113.884 52C113.888 52 113.892 52 113.896 52C113.899 52 113.903 52 113.907 52C113.911 52 113.915 52 113.919 52C113.923 52 113.926 52 113.93 52C113.934 52 113.938 52 113.942 52C113.946 52 113.95 52 113.953 52C113.957 52 113.961 52 113.965 52C113.969 52 113.973 52 113.977 52C113.98 52 113.984 52 113.988 52C113.992 52 113.996 52 114 52C114.003 52 114.007 52 114.011 52C114.015 52 114.019 52 114.023 52C114.026 52 114.03 52 114.034 52C114.038 52 114.042 52 114.046 52C114.049 52 114.053 52 114.057 52C114.061 52 114.065 52 114.069 52C114.072 52 114.076 52 114.08 52C114.084 52 114.088 52 114.091 52C114.095 52 114.099 52 114.103 52C114.107 52 114.11 52 114.114 52C114.118 52 114.122 52 114.126 52C114.129 52 114.133 52 114.137 52C114.141 52 114.145 52 114.148 52C114.152 52 114.156 52 114.16 52C114.164 52 114.167 52 114.171 52C114.175 52 114.179 52 114.182 52C114.186 52 114.19 52 114.194 52C114.198 52 114.201 52 114.205 52C114.209 52 114.213 52 114.216 52C114.22 52 114.224 52 114.228 52C114.231 52 114.235 52 114.239 52C114.243 52 114.247 52 114.25 52C114.254 52 114.258 52 114.262 52C114.265 52 114.269 52 114.273 52C114.277 52 114.28 52 114.284 52C114.288 52 114.292 52 114.295 52C114.299 52 114.303 52 114.306 52C114.31 52 114.314 52 114.318 52C114.321 52 114.325 52 114.329 52C114.333 52 114.336 52 114.34 52C114.344 52 114.348 52 114.351 52C114.355 52 114.359 52 114.362 52C114.366 52 114.37 52 114.374 52C114.377 52 114.381 52 114.385 52C114.388 52 114.392 52 114.396 52C114.4 52 114.403 52 114.407 52C114.411 52 114.414 52 114.418 52C114.422 52 114.425 52 114.429 52C114.433 52 114.437 52 114.44 52C114.444 52 114.448 52 114.451 52C114.455 52 114.459 52 114.462 52C114.466 52 114.47 52 114.473 52C114.477 52 114.481 52 114.484 52C114.488 52 114.492 52 114.495 52C114.499 52 114.503 52 114.507 52C114.51 52 114.514 52 114.518 52C114.521 52 114.525 52 114.529 52C114.532 52 114.536 52 114.539 52C114.543 52 114.547 52 114.55 52C114.554 52 114.558 52 114.561 52C114.565 52 114.569 52 114.572 52C114.576 52 114.58 52 114.583 52C114.587 52 114.591 52 114.594 52C114.598 52 114.602 52 114.605 52C114.609 52 114.612 52 114.616 52C114.62 52 114.623 52 114.627 52C114.631 52 114.634 52 114.638 52C114.641 52 114.645 52 114.649 52C114.652 52 114.656 52 114.66 52C114.663 52 114.667 52 114.67 52C114.674 52 114.678 52 114.681 52C114.685 52 114.688 52 114.692 52C114.696 52 114.699 52 114.703 52C114.707 52 114.71 52 114.714 52C114.717 52 114.721 52 114.725 52C114.728 52 114.732 52 114.735 52C114.739 52 114.742 52 114.746 52C114.75 52 114.753 52 114.757 52C114.76 52 114.764 52 114.768 52C114.771 52 114.775 52 114.778 52C114.782 52 114.785 52 114.789 52C114.793 52 114.796 52 114.8 52C114.803 52 114.807 52 114.81 52C114.814 52 114.818 52 114.821 52C114.825 52 114.828 52 114.832 52C114.835 52 114.839 52 114.842 52C114.846 52 114.85 52 114.853 52C114.857 52 114.86 52 114.864 52C114.867 52 114.871 52 114.874 52C114.878 52 114.882 52 114.885 52C114.889 52 114.892 52 114.896 52C114.899 52 114.903 52 114.906 52C114.91 52 114.913 52 114.917 52C114.92 52 114.924 52 114.927 52C114.931 52 114.934 52 114.938 52C114.942 52 114.945 52 114.949 52C114.952 52 114.956 52 114.959 52C114.963 52 114.966 52 114.97 52C114.973 52 114.977 52 114.98 52C114.984 52 114.987 52 114.991 52C114.994 52 114.998 52 115.001 52C115.005 52 115.008 52 115.012 52C115.015 52 115.019 52 115.022 52C115.026 52 115.029 52 115.033 52C115.036 52 115.04 52 115.043 52C115.047 52 115.05 52 115.054 52C115.057 52 115.06 52 115.064 52C115.067 52 115.071 52 115.074 52C115.078 52 115.081 52 115.085 52C115.088 52 115.092 52 115.095 52C115.099 52 115.102 52 115.106 52C115.109 52 115.112 52 115.116 52C115.119 52 115.123 52 115.126 52C115.13 52 115.133 52 115.137 52C115.14 52 115.144 52 115.147 52C115.15 52 115.154 52 115.157 52C115.161 52 115.164 52 115.168 52C115.171 52 115.175 52 115.178 52C115.181 52 115.185 52 115.188 52C115.192 52 115.195 52 115.199 52C115.202 52 115.205 52 115.209 52C115.212 52 115.216 52 115.219 52C115.223 52 115.226 52 115.229 52C115.233 52 115.236 52 115.24 52C115.243 52 115.246 52 115.25 52C115.253 52 115.257 52 115.26 52C115.263 52 115.267 52 115.27 52C115.274 52 115.277 52 115.28 52C115.284 52 115.287 52 115.291 52C115.294 52 115.297 52 115.301 52C115.304 52 115.308 52 115.311 52C115.314 52 115.318 52 115.321 52C115.325 52 115.328 52 115.331 52C115.335 52 115.338 52 115.341 52C115.345 52 115.348 52 115.352 52C115.355 52 115.358 52 115.362 52C115.365 52 115.368 52 115.372 52C115.375 52 115.378 52 115.382 52C115.385 52 115.389 52 115.392 52C115.395 52 115.399 52 115.402 52C115.405 52 115.409 52 115.412 52C115.415 52 115.419 52 115.422 52C115.425 52 115.429 52 115.432 52C115.435 52 115.439 52 115.442 52C115.445 52 115.449 52 115.452 52C115.455 52 115.459 52 115.462 52C115.465 52 115.469 52 115.472 52C115.475 52 115.479 52 115.482 52C115.485 52 115.489 52 115.492 52C115.495 52 115.499 52 115.502 52C115.505 52 115.509 52 115.512 52C115.515 52 115.519 52 115.522 52C115.525 52 115.528 52 115.532 52C115.535 52 115.538 52 115.542 52C115.545 52 115.548 52 115.552 52C115.555 52 115.558 52 115.561 52C115.565 52 115.568 52 115.571 52C115.575 52 115.578 52 115.581 52C115.584 52 115.588 52 115.591 52C115.594 52 115.598 52 115.601 52C115.604 52 115.607 52 115.611 52C115.614 52 115.617 52 115.62 52C115.624 52 115.627 52 115.63 52C115.634 52 115.637 52 115.64 52C115.643 52 115.647 52 115.65 52C115.653 52 115.656 52 115.66 52C115.663 52 115.666 52 115.669 52C115.673 52 115.676 52 115.679 52C115.682 52 115.686 52 115.689 52C115.692 52 115.695 52 115.699 52C115.702 52 115.705 52 115.708 52C115.712 52 115.715 52 115.718 52C115.721 52 115.724 52 115.728 52C115.731 52 115.734 52 115.737 52C115.741 52 115.744 52 115.747 52C115.75 52 115.754 52 115.757 52C115.76 52 115.763 52 115.766 52C115.77 52 115.773 52 115.776 52C115.779 52 115.782 52 115.786 52C115.789 52 115.792 52 115.795 52C115.798 52 115.802 52 115.805 52C115.808 52 115.811 52 115.814 52C115.818 52 115.821 52 115.824 52C115.827 52 115.83 52 115.834 52C115.837 52 115.84 52 115.843 52C115.846 52 115.85 52 115.853 52C115.856 52 115.859 52 115.862 52C115.865 52 115.869 52 115.872 52C115.875 52 115.878 52 115.881 52C115.884 52 115.888 52 115.891 52C115.894 52 115.897 52 115.9 52C115.903 52 115.907 52 115.91 52C115.913 52 115.916 52 115.919 52C115.922 52 115.926 52 115.929 52C115.932 52 115.935 52 115.938 52C115.941 52 115.944 52 115.948 52C115.951 52 115.954 52 115.957 52C115.96 52 115.963 52 115.966 52C115.969 52 115.973 52 115.976 52C115.979 52 115.982 52 115.985 52C115.988 52 115.991 52 115.995 52C115.998 52 116.001 52 116.004 52C116.007 52 116.01 52 116.013 52C116.016 52 116.019 52 116.023 52C116.026 52 116.029 52 116.032 52C116.035 52 116.038 52 116.041 52C116.044 52 116.047 52 116.051 52C116.054 52 116.057 52 116.06 52C116.063 52 116.066 52 116.069 52C116.072 52 116.075 52 116.078 52C116.082 52 116.085 52 116.088 52C116.091 52 116.094 52 116.097 52C116.1 52 116.103 52 116.106 52C116.109 52 116.112 52 116.115 52C116.118 52 116.122 52 116.125 52C116.128 52 116.131 52 116.134 52C116.137 52 116.14 52 116.143 52C116.146 52 116.149 52 116.152 52C116.155 52 116.158 52 116.161 52C116.164 52 116.168 52 116.171 52C116.174 52 116.177 52 116.18 52C116.183 52 116.186 52 116.189 52C116.192 52 116.195 52 116.198 52C116.201 52 116.204 52 116.207 52C116.21 52 116.213 52 116.216 52C116.219 52 116.222 52 116.225 52C116.228 52 116.231 52 116.234 52C116.237 52 116.24 52 116.243 52C116.247 52 116.25 52 116.253 52C116.256 52 116.259 52 116.262 52C116.265 52 116.268 52 116.271 52C116.274 52 116.277 52 116.28 52C116.283 52 116.286 52 116.289 52C116.292 52 116.295 52 116.298 52C116.301 52 116.304 52 116.307 52C116.31 52 116.313 52 116.316 52C116.319 52 116.322 52 116.325 52C116.328 52 116.331 52 116.334 52C116.337 52 116.34 52 116.343 52C116.346 52 116.349 52 116.352 52C116.354 52 116.357 52 116.36 52C116.363 52 116.366 52 116.369 52C116.372 52 116.375 52 116.378 52C116.381 52 116.384 52 116.387 52C116.39 52 116.393 52 116.396 52C116.399 52 116.402 52 116.405 52C116.408 52 116.411 52 116.414 52C116.417 52 116.42 52 116.423 52C116.426 52 116.429 52 116.431 52C116.434 52 116.437 52 116.44 52C116.443 52 116.446 52 116.449 52C116.452 52 116.455 52 116.458 52C116.461 52 116.464 52 116.467 52C116.47 52 116.473 52 116.475 52C116.478 52 116.481 52 116.484 52C116.487 52 116.49 52 116.493 52C116.496 52 116.499 52 116.502 52C116.505 52 116.508 52 116.51 52C116.513 52 116.516 52 116.519 52C116.522 52 116.525 52 116.528 52C116.531 52 116.534 52 116.537 52C116.54 52 116.542 52 116.545 52C116.548 52 116.551 52 116.554 52C116.557 52 116.56 52 116.563 52C116.566 52 116.568 52 116.571 52C116.574 52 116.577 52 116.58 52C116.583 52 116.586 52 116.589 52C116.592 52 116.594 52 116.597 52C116.6 52 116.603 52 116.606 52C116.609 52 116.612 52 116.614 52C116.617 52 116.62 52 116.623 52C116.626 52 116.629 52 116.632 52C116.634 52 116.637 52 116.64 52C116.643 52 116.646 52 116.649 52C116.652 52 116.654 52 116.657 52C116.66 52 116.663 52 116.666 52C116.669 52 116.672 52 116.674 52C116.677 52 116.68 52 116.683 52C116.686 52 116.689 52 116.691 52C116.694 52 116.697 52 116.7 52C116.703 52 116.706 52 116.708 52C116.711 52 116.714 52 116.717 52C116.72 52 116.722 52 116.725 52C116.728 52 116.731 52 116.734 52C116.737 52 116.739 52 116.742 52C116.745 52 116.748 52 116.751 52C116.753 52 116.756 52 116.759 52C116.762 52 116.765 52 116.767 52C116.77 52 116.773 52 116.776 52C116.779 52 116.781 52 116.784 52C116.787 52 116.79 52 116.793 52C116.795 52 116.798 52 116.801 52C116.804 52 116.806 52 116.809 52C116.812 52 116.815 52 116.818 52C116.82 52 116.823 52 116.826 52C116.829 52 116.831 52 116.834 52C116.837 52 116.84 52 116.842 52C116.845 52 116.848 52 116.851 52C116.854 52 116.856 52 116.859 52C116.862 52 116.865 52 116.867 52C116.87 52 116.873 52 116.876 52C116.878 52 116.881 52 116.884 52C116.887 52 116.889 52 116.892 52C116.895 52 116.898 52 116.9 52C116.903 52 116.906 52 116.908 52C116.911 52 116.914 52 116.917 52C116.919 52 116.922 52 116.925 52C116.928 52 116.93 52 116.933 52C116.936 52 116.938 52 116.941 52C116.944 52 116.947 52 116.949 52C116.952 52 116.955 52 116.958 52C116.96 52 116.963 52 116.966 52C116.968 52 116.971 52 116.974 52C116.976 52 116.979 52 116.982 52C116.985 52 116.987 52 116.99 52C116.993 52 116.995 52 116.998 52C117.001 52 117.003 52 117.006 52C117.009 52 117.012 52 117.014 52C117.017 52 117.02 52 117.022 52C117.025 52 117.028 52 117.03 52C117.033 52 117.036 52 117.038 52C117.041 52 117.044 52 117.046 52C117.049 52 117.052 52 117.054 52C117.057 52 117.06 52 117.062 52C117.065 52 117.068 52 117.07 52C117.073 52 117.076 52 117.078 52C117.081 52 117.084 52 117.086 52C117.089 52 117.092 52 117.094 52C117.097 52 117.1 52 117.102 52C117.105 52 117.107 52 117.11 52C117.113 52 117.115 52 117.118 52C117.121 52 117.123 52 117.126 52C117.129 52 117.131 52 117.134 52C117.136 52 117.139 52 117.142 52C117.144 52 117.147 52 117.15 52C117.152 52 117.155 52 117.157 52C117.16 52 117.163 52 117.165 52C117.168 52 117.171 52 117.173 52C117.176 52 117.178 52 117.181 52C117.184 52 117.186 52 117.189 52C117.191 52 117.194 52 117.197 52C117.199 52 117.202 52 117.204 52C117.207 52 117.21 52 117.212 52C117.215 52 117.217 52 117.22 52C117.223 52 117.225 52 117.228 52C117.23 52 117.233 52 117.235 52C117.238 52 117.241 52 117.243 52C117.246 52 117.248 52 117.251 52C117.253 52 117.256 52 117.259 52C117.261 52 117.264 52 117.266 52C117.269 52 117.271 52 117.274 52C117.277 52 117.279 52 117.282 52C117.284 52 117.287 52 117.289 52C117.292 52 117.294 52 117.297 52C117.3 52 117.302 52 117.305 52C117.307 52 117.31 52 117.312 52C117.315 52 117.317 52 117.32 52C117.322 52 117.325 52 117.328 52C117.33 52 117.333 52 117.335 52C117.338 52 117.34 52 117.343 52C117.345 52 117.348 52 117.35 52C117.353 52 117.355 52 117.358 52C117.36 52 117.363 52 117.365 52C117.368 52 117.37 52 117.373 52C117.376 52 117.378 52 117.381 52C117.383 52 117.386 52 117.388 52C117.391 52 117.393 52 117.396 52C117.398 52 117.401 52 117.403 52C117.406 52 117.408 52 117.411 52C117.413 52 117.416 52 117.418 52C117.421 52 117.423 52 117.426 52C117.428 52 117.43 52 117.433 52C117.435 52 117.438 52 117.44 52C117.443 52 117.445 52 117.448 52C117.45 52 117.453 52 117.455 52C117.458 52 117.46 52 117.463 52C117.465 52 117.468 52 117.47 52C117.473 52 117.475 52 117.477 52C117.48 52 117.482 52 117.485 52C117.487 52 117.49 52 117.492 52C117.495 52 117.497 52 117.5 52C117.502 52 117.504 52 117.507 52C117.509 52 117.512 52 117.514 52C117.517 52 117.519 52 117.522 52C117.524 52 117.526 52 117.529 52C117.531 52 117.534 52 117.536 52C117.539 52 117.541 52 117.543 52C117.546 52 117.548 52 117.551 52C117.553 52 117.556 52 117.558 52C117.56 52 117.563 52 117.565 52C117.568 52 117.57 52 117.573 52C117.575 52 117.577 52 117.58 52C117.582 52 117.585 52 117.587 52C117.589 52 117.592 52 117.594 52C117.597 52 117.599 52 117.601 52C117.604 52 117.606 52 117.609 52C117.611 52 117.613 52 117.616 52C117.618 52 117.621 52 117.623 52C117.625 52 117.628 52 117.63 52C117.632 52 117.635 52 117.637 52C117.64 52 117.642 52 117.644 52C117.647 52 117.649 52 117.651 52C117.654 52 117.656 52 117.659 52C117.661 52 117.663 52 117.666 52C117.668 52 117.67 52 117.673 52C117.675 52 117.677 52 117.68 52C117.682 52 117.685 52 117.687 52C117.689 52 117.692 52 117.694 52C117.696 52 117.699 52 117.701 52C117.703 52 117.706 52 117.708 52C117.71 52 117.713 52 117.715 52C117.717 52 117.72 52 117.722 52C117.724 52 117.727 52 117.729 52C117.731 52 117.734 52 117.736 52C117.738 52 117.741 52 117.743 52C117.745 52 117.748 52 117.75 52C117.752 52 117.755 52 117.757 52C117.759 52 117.762 52 117.764 52C117.766 52 117.768 52 117.771 52C117.773 52 117.775 52 117.778 52C117.78 52 117.782 52 117.785 52C117.787 52 117.789 52 117.792 52C117.794 52 117.796 52 117.798 52C117.801 52 117.803 52 117.805 52C117.808 52 117.81 52 117.812 52C117.814 52 117.817 52 117.819 52C117.821 52 117.824 52 117.826 52C117.828 52 117.83 52 117.833 52C117.835 52 117.837 52 117.839 52C117.842 52 117.844 52 117.846 52C117.849 52 117.851 52 117.853 52C117.855 52 117.858 52 117.86 52C117.862 52 117.864 52 117.867 52C117.869 52 117.871 52 117.873 52C117.876 52 117.878 52 117.88 52C117.882 52 117.885 52 117.887 52C117.889 52 117.891 52 117.894 52C117.896 52 117.898 52 117.9 52C117.903 52 117.905 52 117.907 52C117.909 52 117.911 52 117.914 52C117.916 52 117.918 52 117.92 52C117.923 52 117.925 52 117.927 52C117.929 52 117.932 52 117.934 52C117.936 52 117.938 52 117.94 52C117.943 52 117.945 52 117.947 52C117.949 52 117.951 52 117.954 52C117.956 52 117.958 52 117.96 52C117.962 52 117.965 52 117.967 52C117.969 52 117.971 52 117.973 52C117.976 52 117.978 52 117.98 52C117.982 52 117.984 52 117.987 52C117.989 52 117.991 52 117.993 52C117.995 52 117.998 52 118 52C118.002 52 118.004 52 118.006 52C118.008 52 118.011 52 118.013 52C118.015 52 118.017 52 118.019 52C118.021 52 118.024 52 118.026 52C118.028 52 118.03 52 118.032 52C118.034 52 118.037 52 118.039 52C118.041 52 118.043 52 118.045 52C118.047 52 118.05 52 118.052 52C118.054 52 118.056 52 118.058 52C118.06 52 118.062 52 118.065 52C118.067 52 118.069 52 118.071 52C118.073 52 118.075 52 118.077 52C118.08 52 118.082 52 118.084 52C118.086 52 118.088 52 118.09 52C118.092 52 118.094 52 118.097 52C118.099 52 118.101 52 118.103 52C118.105 52 118.107 52 118.109 52C118.111 52 118.114 52 118.116 52C118.118 52 118.12 52 118.122 52C118.124 52 118.126 52 118.128 52C118.13 52 118.133 52 118.135 52C118.137 52 118.139 52 118.141 52C118.143 52 118.145 52 118.147 52C118.149 52 118.151 52 118.153 52C118.156 52 118.158 52 118.16 52C118.162 52 118.164 52 118.166 52V42ZM113.494 42C112.599 42 111.95 41.9659 111.51 41.9176C111.293 41.8939 111.165 41.871 111.11 41.859C111.044 41.8448 111.127 41.8568 111.302 41.9286L107.494 51.1754C109.247 51.8972 111.55 52 113.494 52V42ZM111.302 41.9286C111.496 42.0084 112.039 42.2722 112.538 42.9188C113.088 43.6306 113.31 44.4507 113.31 45.144H103.31C103.31 46.4773 103.713 47.8521 104.626 49.0332C105.488 50.1491 106.575 50.7969 107.494 51.1754L111.302 41.9286ZM113.31 45.144V4.76H103.31V45.144H113.31ZM113.31 4.76C113.31 5.70876 112.97 6.50492 112.566 7.04832C112.209 7.52731 111.869 7.72961 111.827 7.75403C111.771 7.78726 111.84 7.73934 112.11 7.64759C112.37 7.55958 112.744 7.45529 113.256 7.34618L111.172 -2.43418C109.68 -2.11624 108.085 -1.64928 106.745 -0.858039C105.451 -0.0946388 103.31 1.67312 103.31 4.76H113.31ZM113.315 7.3332C115.565 6.82523 118.009 6.56 120.662 6.56V-3.44C117.342 -3.44 114.154 -3.1079 111.113 -2.42121L113.315 7.3332ZM120.662 6.56C121.961 6.56 122.928 6.64502 123.616 6.76891C124.333 6.89791 124.547 7.03386 124.49 6.99946L129.634 -1.57547C127.123 -3.08263 123.813 -3.44 120.662 -3.44V6.56ZM124.49 6.99946C124.663 7.10361 124.779 7.18551 124.849 7.24052C124.921 7.29599 124.931 7.31257 124.904 7.28338C124.852 7.22634 124.593 6.92195 124.451 6.35668L134.153 3.93131C133.455 1.14234 131.308 -0.571313 129.634 -1.57547L124.49 6.99946ZM124.46 6.39117L128.812 23.2872L138.496 20.7928L134.144 3.89683L124.46 6.39117ZM133.654 27.04H134.23V17.04H133.654V27.04ZM139.076 23.2708L143.172 7.14277L133.48 4.68123L129.384 20.8092L139.076 23.2708ZM143.166 7.16681C142.919 8.11981 142.365 8.45931 142.52 8.34775C142.575 8.30796 142.721 8.2124 143 8.07845C143.275 7.94617 143.642 7.79441 144.116 7.63087L140.856 -1.82287C139.373 -1.31139 137.903 -0.654269 136.66 0.244246C135.428 1.13535 134.032 2.55219 133.486 4.65718L143.166 7.16681ZM144.163 7.61451C146.082 6.93126 148.26 6.56 150.742 6.56V-3.44C147.251 -3.44 143.924 -2.91526 140.809 -1.80651L144.163 7.61451ZM150.742 6.56C153.621 6.56 155.145 6.8048 155.753 7.00741L158.915 -2.47942C156.707 -3.21547 153.837 -3.44 150.742 -3.44V6.56ZM155.795 7.02122C156.248 7.16785 156.118 7.19613 155.787 6.92365C155.594 6.76472 155.27 6.45071 154.99 5.94016C154.693 5.39911 154.51 4.7492 154.51 4.056H164.51C164.51 1.78105 163.293 0.15041 162.145 -0.795649C161.088 -1.66547 159.871 -2.17052 158.873 -2.49323L155.795 7.02122ZM154.51 4.056V45.144H164.51V4.056H154.51ZM154.51 45.144C154.51 43.2398 155.606 42.0905 156.101 41.6823C156.362 41.4671 156.581 41.344 156.689 41.2878C156.748 41.2566 156.794 41.2357 156.823 41.2234C156.851 41.211 156.868 41.2049 156.869 41.2043C156.871 41.2038 156.834 41.2172 156.749 41.2407C156.666 41.2637 156.552 41.2924 156.401 41.3251C156.095 41.3912 155.689 41.4633 155.167 41.5365L156.557 51.4395C157.872 51.2549 159.208 50.9998 160.327 50.5877C160.864 50.3898 161.688 50.037 162.463 49.3977C163.262 48.7388 164.51 47.3255 164.51 45.144H154.51ZM155.167 41.5365C153.039 41.8352 150.321 42 146.966 42V52C150.608 52 153.821 51.8235 156.557 51.4395L155.167 41.5365ZM146.966 42C146.228 42 145.667 41.9669 145.255 41.9184C144.827 41.8678 144.672 41.8131 144.697 41.8221C144.718 41.8296 144.83 41.8703 144.995 41.9676C145.161 42.0654 145.415 42.2406 145.685 42.5266C145.962 42.8212 146.237 43.2143 146.436 43.7063C146.636 44.201 146.718 44.6957 146.718 45.144H136.718C136.718 46.7709 137.344 48.2572 138.407 49.3854C139.363 50.3993 140.492 50.942 141.363 51.2499C143.057 51.849 145.059 52 146.966 52V42ZM146.718 45.144C146.718 42.0093 147.062 36.2081 147.788 27.5793L137.824 26.7407C137.099 35.3493 136.718 41.5373 136.718 45.144H146.718ZM142.806 22.16H142.23V32.16H142.806V22.16ZM137.326 26.183L133.998 42.887L143.806 44.841L147.134 28.137L137.326 26.183ZM133.999 42.8834C134.169 42.032 134.624 41.3638 135.103 40.9424C135.515 40.5796 135.834 40.492 135.786 40.5074L138.818 50.0366C140.525 49.4934 143.158 48.0784 143.805 44.8446L133.999 42.8834ZM135.721 40.5286C135.724 40.5276 135.536 40.5858 135.062 40.6376C134.609 40.6873 133.998 40.72 133.206 40.72V50.72C135.171 50.72 137.198 50.5771 138.883 50.0154L135.721 40.5286ZM133.206 40.72C132.378 40.72 131.846 40.6898 131.544 40.6557C131.395 40.6388 131.383 40.6296 131.463 40.6494C131.507 40.6603 131.609 40.6872 131.749 40.7393C131.883 40.7892 132.112 40.8841 132.386 41.0485L127.242 49.6235C128.467 50.3589 129.83 50.5255 130.42 50.5923C131.249 50.6862 132.199 50.72 133.206 50.72V40.72ZM132.588 41.1757C133.222 41.5988 133.583 42.111 133.767 42.4632C133.856 42.6348 133.907 42.773 133.934 42.8583C133.961 42.944 133.97 42.9932 133.97 42.9951L124.122 44.7329C124.35 46.0256 124.998 48.1349 127.04 49.4963L132.588 41.1757ZM133.942 42.851L130.486 26.147L120.694 28.173L124.15 44.877L133.942 42.851ZM125.59 22.16H125.014V32.16H125.59V22.16ZM120.033 27.5952C120.803 36.4071 121.166 42.1935 121.166 45.144H131.166C131.166 41.6945 130.761 35.4916 129.995 26.7248L120.033 27.5952ZM121.166 45.144C121.166 43.0615 122.524 41.9617 122.947 41.688C123.329 41.4403 123.485 41.4652 123.036 41.5694C122.214 41.76 120.629 41.9395 118.046 42.0014L118.286 51.9986C121.037 51.9325 123.451 51.7387 125.296 51.3106C126.18 51.1055 127.336 50.7597 128.385 50.08C129.474 49.3743 131.166 47.7811 131.166 45.144H121.166ZM178.574 46.616L179.064 51.592L179.104 51.588L179.145 51.5834L178.574 46.616ZM165.71 46.68L164.046 51.395L164.172 51.4393L164.3 51.4768L165.71 46.68ZM168.335 2.904L170.037 7.60533L170.072 7.59243L170.108 7.57899L168.335 2.904ZM182.031 3.224L186.127 0.356686L186.088 0.301749L186.048 0.247864L182.031 3.224ZM177.479 45.464C177.479 44.2873 177.907 43.338 178.372 42.698C178.799 42.1091 179.257 41.7732 179.493 41.6188C179.935 41.3289 180.237 41.2644 180.087 41.3084C179.861 41.3751 179.231 41.5078 178.004 41.6486L179.145 51.5834C180.52 51.4255 181.842 51.2169 182.918 50.8996C183.419 50.7516 184.209 50.4845 184.976 49.9812C185.605 49.5688 187.479 48.1468 187.479 45.464H177.479ZM178.085 41.64C175.647 41.8798 173.186 42 170.702 42V52C173.509 52 176.297 51.8642 179.064 51.592L178.085 41.64ZM170.702 42C169.456 42 168.506 41.9741 167.822 41.9302C167.481 41.9084 167.245 41.8844 167.094 41.8642C166.919 41.8407 166.958 41.8352 167.121 41.8832L164.3 51.4768C165.237 51.7524 166.314 51.8541 167.183 51.9098C168.163 51.9726 169.346 52 170.702 52V42ZM167.375 41.965C167.495 42.0075 168.057 42.2205 168.621 42.85C169.277 43.584 169.622 44.538 169.622 45.464H159.622C159.622 46.9447 160.149 48.3787 161.168 49.518C162.094 50.5529 163.201 51.0965 164.046 51.395L167.375 41.965ZM169.622 45.464V5.656H159.622V45.464H169.622ZM169.622 5.656C169.622 6.58198 169.303 7.29751 169.015 7.7295C168.878 7.93435 168.751 8.07386 168.67 8.15471C168.588 8.23593 168.534 8.27607 168.528 8.28056C168.525 8.28311 168.63 8.20716 168.905 8.0726C169.172 7.94203 169.543 7.78415 170.037 7.60533L166.632 -1.79733C165.213 -1.28339 163.761 -0.633589 162.573 0.247438C161.497 1.04488 159.622 2.8073 159.622 5.656H169.622ZM170.108 7.57899C171.933 6.88675 174.093 6.496 176.654 6.496V-3.504C173.072 -3.504 169.686 -2.95608 166.561 -1.77099L170.108 7.57899ZM176.654 6.496C177.713 6.496 178.283 6.61311 178.516 6.68814C178.726 6.75565 178.377 6.69235 178.013 6.20013L186.048 0.247864C183.67 -2.963 179.633 -3.504 176.654 -3.504V6.496ZM177.934 6.09131C177.776 5.86574 177.479 5.31116 177.479 4.504H187.479C187.479 2.8435 186.882 1.43559 186.127 0.356686L177.934 6.09131ZM177.479 4.504V45.464H187.479V4.504H177.479Z" fill="black" mask="url(#path-1-outside-1_75_457)"/>
</svg>
