<svg width="24" height="24" viewBox="0 0 24 24" fill="none" xmlns="http://www.w3.org/2000/svg">
<path fill-rule="evenodd" clip-rule="evenodd" d="M9.93999 12.6459L7.69199 11.8969C5.33899 11.1129 4.16199 10.7209 4.16199 9.99986C4.16199 9.27986 5.33899 8.88686 7.69199 8.10286L16.205 5.26486C17.861 4.71286 18.689 4.43686 19.126 4.87386C19.563 5.31086 19.287 6.13886 18.736 7.79386L15.897 16.3079C15.113 18.6609 14.721 19.8379 14 19.8379C13.28 19.8379 12.887 18.6609 12.103 16.3079L11.353 14.0609L15.707 9.70686C15.8891 9.51826 15.9899 9.26566 15.9877 9.00346C15.9854 8.74126 15.8802 8.49045 15.6948 8.30504C15.5094 8.11963 15.2586 8.01446 14.9964 8.01219C14.7342 8.00991 14.4816 8.1107 14.293 8.29286L9.93999 12.6459Z" fill="#1B2E5F"/>
</svg>
