<svg width="20" height="12" viewBox="0 0 20 12" fill="none" xmlns="http://www.w3.org/2000/svg">
<path d="M0.200012 6C1.1212 4.19302 2.52406 2.67591 4.25353 1.61634C5.98301 0.556774 7.97177 -0.0039978 10 -0.0039978C12.0283 -0.0039978 14.017 0.556774 15.7465 1.61634C17.476 2.67591 18.8788 4.19302 19.8 6C18.8788 7.80699 17.476 9.32409 15.7465 10.3837C14.017 11.4432 12.0283 12.004 10 12.004C7.97177 12.004 5.98301 11.4432 4.25353 10.3837C2.52406 9.32409 1.1212 7.80699 0.200012 6ZM10 10C11.0609 10 12.0783 9.57858 12.8284 8.82843C13.5786 8.07829 14 7.06087 14 6C14 4.93914 13.5786 3.92172 12.8284 3.17158C12.0783 2.42143 11.0609 2 10 2C8.93915 2 7.92173 2.42143 7.17159 3.17158C6.42144 3.92172 6.00001 4.93914 6.00001 6C6.00001 7.06087 6.42144 8.07829 7.17159 8.82843C7.92173 9.57858 8.93915 10 10 10ZM10 8C9.46958 8 8.96087 7.78929 8.5858 7.41422C8.21073 7.03914 8.00001 6.53044 8.00001 6C8.00001 5.46957 8.21073 4.96086 8.5858 4.58579C8.96087 4.21072 9.46958 4 10 4C10.5304 4 11.0392 4.21072 11.4142 4.58579C11.7893 4.96086 12 5.46957 12 6C12 6.53044 11.7893 7.03914 11.4142 7.41422C11.0392 7.78929 10.5304 8 10 8Z" fill="#435DC7"/>
</svg>
