<svg width="24" height="24" viewBox="0 0 24 24" fill="none" xmlns="http://www.w3.org/2000/svg">
<path d="M18.7185 2.65799C18.3779 2.31738 17.9736 2.04718 17.5286 1.86284C17.0836 1.6785 16.6066 1.58362 16.125 1.58362C15.6433 1.58362 15.1664 1.6785 14.7214 1.86284C14.2764 2.04718 13.872 2.31738 13.5315 2.65799L3.59398 12.5955C3.51216 12.6778 3.45054 12.7779 3.41398 12.888L1.53898 18.513C1.49662 18.6404 1.48924 18.7768 1.51759 18.908C1.54595 19.0393 1.60901 19.1605 1.70019 19.259C1.79137 19.3575 1.90733 19.4298 2.03596 19.4682C2.16459 19.5067 2.30118 19.5099 2.43148 19.4775L8.43147 17.9775C8.56365 17.9449 8.68447 17.877 8.78097 17.781L17.25 9.31049L17.379 9.43949C17.6602 9.72078 17.8182 10.1022 17.8182 10.5C17.8182 10.8977 17.6602 11.2792 17.379 11.5605L15.219 13.7205C15.0783 13.8613 14.9994 14.0522 14.9996 14.2513C14.9997 14.4503 15.0789 14.6411 15.2197 14.7817C15.3606 14.9224 15.5515 15.0013 15.7505 15.0012C15.9495 15.001 16.1403 14.9218 16.281 14.781L18.4395 12.621C19.0019 12.0584 19.3178 11.2955 19.3178 10.5C19.3178 9.7045 19.0019 8.94157 18.4395 8.37899L18.3105 8.24999L18.7185 7.84349C19.4059 7.15575 19.7921 6.22315 19.7921 5.25074C19.7921 4.27834 19.4059 3.34573 18.7185 2.65799ZM7.45048 22.5C5.59798 22.5 4.13848 21.651 3.16798 20.8395L5.09398 20.3595C5.81068 20.7723 6.6219 20.993 7.44898 21C8.05797 21 8.68498 20.754 9.35397 20.3145C10.0245 19.875 10.671 19.284 11.325 18.672L11.4945 18.5115C12.072 17.97 12.6705 17.406 13.2435 17.0175C13.8555 16.6005 14.6685 16.2225 15.519 16.551C16.083 16.767 16.449 17.166 16.7055 17.655C16.947 18.114 17.1135 18.687 17.2755 19.3125C17.3505 19.5975 17.475 19.8735 17.6205 20.0595C17.6672 20.125 17.7251 20.1819 17.7915 20.2275C17.829 20.25 17.8455 20.25 17.85 20.25C18.033 20.25 18.3465 20.127 18.795 19.821C19.0725 19.632 19.311 19.443 19.548 19.2525C19.695 19.1355 19.8435 19.017 20.001 18.9C20.4195 18.5865 20.781 18.3765 21.0465 18.243C21.1823 18.1741 21.3215 18.112 21.4635 18.057L21.4935 18.045L21.504 18.042L21.5085 18.0405H21.51L21.75 18.75L21.5115 18.039C21.6991 17.9779 21.9033 17.9933 22.0796 18.0817C22.256 18.1702 22.3905 18.3245 22.4538 18.5114C22.5172 18.6983 22.5043 18.9026 22.4181 19.0801C22.3318 19.2575 22.1791 19.3939 21.993 19.4595L21.987 19.4625C21.8977 19.4985 21.8101 19.5386 21.7245 19.5825C21.5295 19.6785 21.243 19.8435 20.8995 20.1015C20.811 20.166 20.697 20.2575 20.565 20.3625C20.2935 20.577 19.9515 20.8485 19.638 21.0615C19.173 21.3795 18.5265 21.7515 17.85 21.7515C17.196 21.7515 16.7235 21.354 16.431 20.976C16.146 20.591 15.9396 20.1537 15.8235 19.689C15.6585 19.0545 15.5295 18.639 15.3795 18.354C15.2445 18.102 15.1245 18.006 14.9805 17.949C14.8575 17.904 14.613 17.8995 14.088 18.258C13.6185 18.576 13.1055 19.0575 12.501 19.626L12.351 19.7655C11.7045 20.373 10.971 21.048 10.1775 21.5685C9.38247 22.0905 8.46747 22.5 7.45048 22.5Z" fill="#0FA958"/>
</svg>
